<svg width="52" height="52" viewBox="0 0 52 52" fill="none" xmlns="http://www.w3.org/2000/svg">
<g clip-path="url(#clip0_7724_2159)">
<path d="M51.569 0.215485V1.0901C51.569 8.00447 49.3247 14.3908 45.5293 19.5559H31.354C20.9412 19.5559 11.7165 24.6386 6.02326 32.4441H0V23.3184C0 10.5623 10.3468 0.215485 23.1029 0.215485H51.569Z" fill="#00AEEF"/>
<path d="M45.5294 19.5573C39.8362 27.3793 30.6116 32.4454 20.2152 32.4454H6.02344C11.7167 24.6399 20.9413 19.5573 31.3541 19.5573H45.5294Z" fill="#008187"/>
<path d="M51.569 19.5573V28.6829C51.569 41.4391 41.2222 51.7859 28.4661 51.7859H0V50.9112C0 44.0134 2.22778 37.6271 6.02326 32.4454H20.2151C30.6114 32.4454 39.836 27.3793 45.5293 19.5573H51.569Z" fill="#009D77"/>
</g>
<defs>
<clipPath id="clip0_7724_2159">
<rect width="51.569" height="51.569" fill="white" transform="translate(0 0.215485)"/>
</clipPath>
</defs>
</svg>
