<svg width="129" height="63" viewBox="0 0 129 63" fill="none" xmlns="http://www.w3.org/2000/svg">
<path d="M18.4337 11.2214H29.8769V16.3901C29.8769 23.6098 24.0181 29.4686 16.7984 29.4686H0.68457V28.9706C0.68457 19.1744 8.63757 11.2214 18.4337 11.2214Z" fill="#009D77"/>
<path d="M13.7631 0.276855H29.8769V0.774898C29.8769 10.571 21.9239 18.524 12.1278 18.524H0.68457V13.3554C0.68457 6.13572 6.54344 0.276855 13.7631 0.276855Z" fill="#01A6FF"/>
<path d="M42.1533 6.86906C42.1533 4.76708 43.0043 3.14354 44.7102 1.99844C46.4161 0.849409 48.8593 0.276855 52.0475 0.276855C55.2358 0.276855 57.7142 0.543524 59.4868 1.07294V5.90435C57.5103 5.26121 55.173 4.93963 52.4828 4.93963C49.7926 4.93963 48.4436 5.77886 48.4436 7.46122V8.59456C48.4436 9.43378 48.6318 10.0848 49.0044 10.5475C49.3769 11.0103 50.1102 11.4769 51.2044 11.9554L57.0828 14.6848C59.8436 15.9162 61.2241 17.7946 61.2241 20.3123V22.7907C61.2241 24.9202 60.2868 26.5633 58.4123 27.728C56.5377 28.8888 53.8593 29.4731 50.3848 29.4731C46.9102 29.4731 44.2984 29.1633 42.5612 28.5476V23.677C44.7416 24.4339 47.2122 24.8104 49.9769 24.8104C53.3534 24.8104 55.0397 23.9437 55.0397 22.2064V21.1162C55.0397 20.3868 54.8593 19.8221 54.5024 19.4142C54.1456 19.0103 53.4867 18.5946 52.5338 18.175L46.9102 15.6534C43.7376 14.226 42.1533 12.1671 42.1533 9.47692V6.87298V6.86906Z" fill="#EFF1F9"/>
<path d="M65.8012 5.39887C67.7424 4.86945 70.3189 4.60278 73.5228 4.60278C76.7268 4.60278 79.064 5.18318 80.5268 6.34789C81.9935 7.50869 82.7268 9.2538 82.7268 11.5754V29.2579H76.8993V27.4931C75.5699 28.752 73.7032 29.3834 71.2993 29.3834C68.8953 29.3834 67.1306 28.8932 66.009 27.9128C64.8835 26.9324 64.3228 25.4343 64.3228 23.4186V21.9911C64.3228 20.2853 64.8169 18.9401 65.8051 17.9597C66.7934 16.9793 68.3934 16.2382 70.613 15.7323L76.7974 14.348V11.5322C76.7621 10.6656 76.4562 10.0342 75.8758 9.64204C75.2954 9.24988 73.966 9.0538 71.8875 9.0538C69.8091 9.0538 67.7816 9.34792 65.8012 9.93616V5.39887ZM70.3502 22.2029V23.4225C70.3502 24.85 71.2522 25.5637 73.0601 25.5637C74.4562 25.5637 75.6836 25.2539 76.7424 24.6382V18.5048L73.1111 19.3441C71.9856 19.5951 71.2444 19.9166 70.8875 20.3088C70.5306 20.7009 70.3502 21.3323 70.3502 22.199V22.2029Z" fill="#EFF1F9"/>
<path d="M103.93 6.05388C102.738 5.14015 101.169 4.68524 99.228 4.68524C97.2869 4.68524 95.2751 5.09309 93.1966 5.90486V4.63818C90.8554 4.72446 88.9103 4.97936 87.3691 5.4029V37.2894L93.5535 35.858V29.258H98.0006C100.354 29.258 102.228 28.7325 103.624 27.6815C105.02 26.6305 105.718 25.0854 105.718 23.0383V10.0657C105.718 8.30488 105.122 6.96761 103.93 6.05388ZM99.483 22.3285C99.483 23.8422 98.479 24.5991 96.4672 24.5991H93.5535V10.148C94.7104 9.61469 95.9065 9.3441 97.1339 9.3441C98.7026 9.3441 99.4869 9.95587 99.4869 11.152V22.3285H99.483Z" fill="#EFF1F9"/>
<path d="M110.298 5.39887C112.239 4.86945 114.816 4.60278 118.02 4.60278C121.224 4.60278 123.561 5.18318 125.024 6.34789C126.491 7.50869 127.224 9.2538 127.224 11.5754V29.2579H121.396V27.4931C120.067 28.752 118.2 29.3834 115.796 29.3834C113.392 29.3834 111.628 28.8932 110.506 27.9128C109.381 26.9324 108.82 25.4343 108.82 23.4186V21.9911C108.82 20.2853 109.314 18.9401 110.302 17.9597C111.29 16.9793 112.89 16.2382 115.11 15.7323L121.294 14.348V11.5322C121.259 10.6656 120.953 10.0342 120.373 9.64204C119.792 9.24988 118.463 9.0538 116.385 9.0538C114.306 9.0538 112.279 9.34792 110.298 9.93616V5.39887ZM114.847 22.2029V23.4225C114.847 24.85 115.749 25.5637 117.557 25.5637C118.953 25.5637 120.181 25.2539 121.24 24.6382V18.5048L117.608 19.3441C116.483 19.5951 115.741 19.9166 115.385 20.3088C115.028 20.7009 114.847 21.3323 114.847 22.199V22.2029Z" fill="#EFF1F9"/>
<path d="M1.67559 43.9688V42.3657H12.8683V43.9688H8.17552V57.2893H6.36836V43.9688H1.67559ZM18.2886 57.5225C17.2101 57.5225 16.2798 57.2844 15.4977 56.8084C14.7204 56.3274 14.1205 55.657 13.6978 54.7972C13.28 53.9325 13.0712 52.9269 13.0712 51.7804C13.0712 50.6339 13.28 49.6235 13.6978 48.749C14.1205 47.8698 14.7083 47.1848 15.4613 46.6941C16.2191 46.1986 17.1032 45.9509 18.1137 45.9509C18.6967 45.9509 19.2723 46.048 19.8407 46.2423C20.4091 46.4367 20.9264 46.7524 21.3928 47.1896C21.8592 47.622 22.2308 48.1952 22.5077 48.9094C22.7846 49.6235 22.9231 50.5028 22.9231 51.5472V52.2759H14.2954V50.7894H21.1742C21.1742 50.1578 21.0479 49.5943 20.7953 49.0988C20.5475 48.6033 20.1929 48.2122 19.7314 47.9256C19.2747 47.639 18.7355 47.4957 18.1137 47.4957C17.4287 47.4957 16.8361 47.6657 16.3357 48.0058C15.8402 48.341 15.4588 48.7782 15.1916 49.3174C14.9245 49.8567 14.7909 50.4348 14.7909 51.0517V52.0427C14.7909 52.888 14.9366 53.6046 15.2281 54.1924C15.5244 54.7753 15.9349 55.2198 16.4596 55.5259C16.9842 55.8271 17.5939 55.9777 18.2886 55.9777C18.7404 55.9777 19.1484 55.9145 19.5128 55.7882C19.882 55.657 20.2002 55.4627 20.4674 55.2052C20.7346 54.9429 20.941 54.6174 21.0868 54.2288L22.7482 54.6952C22.5733 55.2587 22.2794 55.7542 21.8665 56.1817C21.4535 56.6043 20.9434 56.9347 20.3362 57.1727C19.729 57.4059 19.0464 57.5225 18.2886 57.5225ZM29.8809 57.5225C28.8316 57.5225 27.928 57.2747 27.1702 56.7792C26.4123 56.2837 25.8294 55.6012 25.4213 54.7316C25.0132 53.862 24.8092 52.8686 24.8092 51.7513C24.8092 50.6145 25.0181 49.6113 25.4359 48.7418C25.8585 47.8673 26.4463 47.1848 27.1993 46.6941C27.9571 46.1986 28.8413 45.9509 29.8517 45.9509C30.6387 45.9509 31.348 46.0966 31.9795 46.3881C32.6111 46.6796 33.1284 47.0876 33.5316 47.6123C33.9348 48.1369 34.185 48.749 34.2822 49.4486H32.5625C32.4313 48.9385 32.1398 48.4867 31.688 48.0932C31.2411 47.6949 30.6387 47.4957 29.8809 47.4957C29.2105 47.4957 28.6227 47.6706 28.1175 48.0204C27.6171 48.3653 27.226 48.8535 26.9443 49.485C26.6674 50.1117 26.5289 50.8477 26.5289 51.693C26.5289 52.5577 26.6649 53.3107 26.937 53.9519C27.2139 54.5931 27.6025 55.0911 28.1029 55.4457C28.6081 55.8003 29.2008 55.9777 29.8809 55.9777C30.3278 55.9777 30.7335 55.8999 31.0978 55.7445C31.4622 55.589 31.7706 55.3656 32.0232 55.0741C32.2759 54.7826 32.4556 54.4328 32.5625 54.0248H34.2822C34.185 54.6855 33.9446 55.2805 33.5608 55.8101C33.1819 56.3347 32.6791 56.7525 32.0524 57.0634C31.4306 57.3695 30.7067 57.5225 29.8809 57.5225ZM38.3107 50.5562V57.2893H36.591V42.3657H38.3107V47.8455H38.4564C38.7187 47.2674 39.1122 46.8083 39.6369 46.4682C40.1664 46.1233 40.8708 45.9509 41.7501 45.9509C42.5128 45.9509 43.1808 46.1039 43.754 46.4099C44.3272 46.7111 44.7717 47.1751 45.0875 47.8017C45.4081 48.4236 45.5684 49.2154 45.5684 50.1773V57.2893H43.8487V50.2939C43.8487 49.4049 43.618 48.7175 43.1565 48.2317C42.6998 47.741 42.0659 47.4957 41.2546 47.4957C40.6911 47.4957 40.1858 47.6147 39.7389 47.8528C39.2968 48.0908 38.9471 48.4381 38.6896 48.8948C38.437 49.3514 38.3107 49.9052 38.3107 50.5562ZM50.2291 50.5562V57.2893H48.5094V46.0966H50.1708V47.8455H50.3165C50.5789 47.2771 50.9772 46.8204 51.5116 46.4755C52.046 46.1258 52.7358 45.9509 53.5811 45.9509C54.3389 45.9509 55.002 46.1063 55.5704 46.4172C56.1388 46.7233 56.5808 47.1896 56.8966 47.8163C57.2124 48.4381 57.3703 49.2251 57.3703 50.1773V57.2893H55.6505V50.2939C55.6505 49.4146 55.4222 48.7296 54.9656 48.239C54.5089 47.7435 53.8823 47.4957 53.0856 47.4957C52.5366 47.4957 52.046 47.6147 51.6136 47.8528C51.1861 48.0908 50.8485 48.4381 50.6007 48.8948C50.353 49.3514 50.2291 49.9052 50.2291 50.5562ZM64.8546 57.5225C63.8441 57.5225 62.9575 57.282 62.1948 56.8011C61.437 56.3201 60.8443 55.6473 60.4168 54.7826C59.9942 53.9179 59.7829 52.9074 59.7829 51.7513C59.7829 50.5853 59.9942 49.5676 60.4168 48.698C60.8443 47.8285 61.437 47.1532 62.1948 46.6723C62.9575 46.1913 63.8441 45.9509 64.8546 45.9509C65.865 45.9509 66.7492 46.1913 67.507 46.6723C68.2697 47.1532 68.8624 47.8285 69.285 48.698C69.7125 49.5676 69.9263 50.5853 69.9263 51.7513C69.9263 52.9074 69.7125 53.9179 69.285 54.7826C68.8624 55.6473 68.2697 56.3201 67.507 56.8011C66.7492 57.282 65.865 57.5225 64.8546 57.5225ZM64.8546 55.9777C65.6221 55.9777 66.2537 55.7809 66.7492 55.3874C67.2447 54.9939 67.6115 54.4766 67.8495 53.8353C68.0875 53.1941 68.2066 52.4994 68.2066 51.7513C68.2066 51.0031 68.0875 50.306 67.8495 49.6599C67.6115 49.0138 67.2447 48.4916 66.7492 48.0932C66.2537 47.6949 65.6221 47.4957 64.8546 47.4957C64.087 47.4957 63.4555 47.6949 62.96 48.0932C62.4645 48.4916 62.0977 49.0138 61.8597 49.6599C61.6216 50.306 61.5026 51.0031 61.5026 51.7513C61.5026 52.4994 61.6216 53.1941 61.8597 53.8353C62.0977 54.4766 62.4645 54.9939 62.96 55.3874C63.4555 55.7809 64.087 55.9777 64.8546 55.9777ZM74.0659 42.3657V57.2893H72.3462V42.3657H74.0659ZM81.5575 57.5225C80.547 57.5225 79.6605 57.282 78.8978 56.8011C78.1399 56.3201 77.5473 55.6473 77.1198 54.7826C76.6971 53.9179 76.4858 52.9074 76.4858 51.7513C76.4858 50.5853 76.6971 49.5676 77.1198 48.698C77.5473 47.8285 78.1399 47.1532 78.8978 46.6723C79.6605 46.1913 80.547 45.9509 81.5575 45.9509C82.5679 45.9509 83.4521 46.1913 84.2099 46.6723C84.9726 47.1532 85.5653 47.8285 85.9879 48.698C86.4154 49.5676 86.6292 50.5853 86.6292 51.7513C86.6292 52.9074 86.4154 53.9179 85.9879 54.7826C85.5653 55.6473 84.9726 56.3201 84.2099 56.8011C83.4521 57.282 82.5679 57.5225 81.5575 57.5225ZM81.5575 55.9777C82.325 55.9777 82.9566 55.7809 83.4521 55.3874C83.9476 54.9939 84.3144 54.4766 84.5524 53.8353C84.7904 53.1941 84.9095 52.4994 84.9095 51.7513C84.9095 51.0031 84.7904 50.306 84.5524 49.6599C84.3144 49.0138 83.9476 48.4916 83.4521 48.0932C82.9566 47.6949 82.325 47.4957 81.5575 47.4957C80.7899 47.4957 80.1584 47.6949 79.6629 48.0932C79.1674 48.4916 78.8006 49.0138 78.5626 49.6599C78.3245 50.306 78.2055 51.0031 78.2055 51.7513C78.2055 52.4994 78.3245 53.1941 78.5626 53.8353C78.8006 54.4766 79.1674 54.9939 79.6629 55.3874C80.1584 55.7809 80.7899 55.9777 81.5575 55.9777ZM93.567 61.7197C92.7363 61.7197 92.0221 61.6129 91.4246 61.3991C90.8271 61.1902 90.3292 60.9133 89.9308 60.5684C89.5373 60.2284 89.224 59.864 88.9908 59.4754L90.3607 58.5135C90.5162 58.7175 90.7129 58.9507 90.951 59.2131C91.189 59.4802 91.5145 59.711 91.9274 59.9053C92.3452 60.1045 92.8917 60.2041 93.567 60.2041C94.4705 60.2041 95.2162 59.9855 95.8041 59.5482C96.3919 59.111 96.6858 58.4261 96.6858 57.4933V55.2198H96.54C96.4137 55.4239 96.234 55.6765 96.0008 55.9777C95.7725 56.274 95.4421 56.5388 95.0098 56.7719C94.5823 57.0003 94.0042 57.1144 93.2755 57.1144C92.3719 57.1144 91.5606 56.9007 90.8417 56.4732C90.1275 56.0457 89.5616 55.4239 89.1438 54.6077C88.7309 53.7916 88.5244 52.8006 88.5244 51.6347C88.5244 50.4882 88.726 49.4899 89.1292 48.6397C89.5325 47.7847 90.0935 47.1241 90.8125 46.6577C91.5315 46.1865 92.3622 45.9509 93.3046 45.9509C94.0333 45.9509 94.6114 46.0723 95.0389 46.3152C95.4713 46.5533 95.8016 46.8253 96.0299 47.1314C96.2631 47.4325 96.4429 47.6803 96.5692 47.8746H96.7441V46.0966H98.4055V57.6099C98.4055 58.5718 98.1869 59.3539 97.7497 59.9563C97.3173 60.5636 96.7343 61.0081 96.0008 61.2898C95.2721 61.5764 94.4608 61.7197 93.567 61.7197ZM93.5087 55.5696C94.1985 55.5696 94.7815 55.4117 95.2575 55.0959C95.7336 54.7802 96.0955 54.326 96.3433 53.7333C96.591 53.1406 96.7149 52.4314 96.7149 51.6055C96.7149 50.7991 96.5935 50.0874 96.3506 49.4705C96.1077 48.8535 95.7482 48.3701 95.2721 48.0204C94.796 47.6706 94.2082 47.4957 93.5087 47.4957C92.78 47.4957 92.1727 47.6803 91.6869 48.0495C91.206 48.4187 90.8441 48.9142 90.6012 49.536C90.3632 50.1578 90.2441 50.8477 90.2441 51.6055C90.2441 52.3828 90.3656 53.0702 90.6085 53.6677C90.8562 54.2604 91.2206 54.7267 91.7015 55.0668C92.1873 55.402 92.7897 55.5696 93.5087 55.5696ZM101.348 57.2893V46.0966H103.068V57.2893H101.348ZM102.223 44.2312C101.887 44.2312 101.598 44.117 101.356 43.8887C101.117 43.6604 100.998 43.3859 100.998 43.0653C100.998 42.7446 101.117 42.4702 101.356 42.2418C101.598 42.0135 101.887 41.8993 102.223 41.8993C102.558 41.8993 102.844 42.0135 103.083 42.2418C103.325 42.4702 103.447 42.7446 103.447 43.0653C103.447 43.3859 103.325 43.6604 103.083 43.8887C102.844 44.117 102.558 44.2312 102.223 44.2312ZM110.705 57.5225C109.627 57.5225 108.697 57.2844 107.914 56.8084C107.137 56.3274 106.537 55.657 106.115 54.7972C105.697 53.9325 105.488 52.9269 105.488 51.7804C105.488 50.6339 105.697 49.6235 106.115 48.749C106.537 47.8698 107.125 47.1848 107.878 46.6941C108.636 46.1986 109.52 45.9509 110.53 45.9509C111.113 45.9509 111.689 46.048 112.257 46.2423C112.826 46.4367 113.343 46.7524 113.809 47.1896C114.276 47.622 114.647 48.1952 114.924 48.9094C115.201 49.6235 115.34 50.5028 115.34 51.5472V52.2759H106.712V50.7894H113.591C113.591 50.1578 113.465 49.5943 113.212 49.0988C112.964 48.6033 112.61 48.2122 112.148 47.9256C111.691 47.639 111.152 47.4957 110.53 47.4957C109.845 47.4957 109.253 47.6657 108.752 48.0058C108.257 48.341 107.876 48.7782 107.608 49.3174C107.341 49.8567 107.208 50.4348 107.208 51.0517V52.0427C107.208 52.888 107.353 53.6046 107.645 54.1924C107.941 54.7753 108.352 55.2198 108.876 55.5259C109.401 55.8271 110.011 55.9777 110.705 55.9777C111.157 55.9777 111.565 55.9145 111.929 55.7882C112.299 55.657 112.617 55.4627 112.884 55.2052C113.151 54.9429 113.358 54.6174 113.503 54.2288L115.165 54.6952C114.99 55.2587 114.696 55.7542 114.283 56.1817C113.87 56.6043 113.36 56.9347 112.753 57.1727C112.146 57.4059 111.463 57.5225 110.705 57.5225ZM125.679 48.6033L124.134 49.0405C124.037 48.7831 123.893 48.5329 123.704 48.29C123.519 48.0422 123.267 47.8382 122.946 47.6779C122.625 47.5176 122.215 47.4374 121.715 47.4374C121.03 47.4374 120.459 47.5953 120.002 47.9111C119.55 48.222 119.325 48.6179 119.325 49.0988C119.325 49.5263 119.48 49.8639 119.791 50.1117C120.102 50.3595 120.588 50.5659 121.248 50.7311L122.91 51.1392C123.91 51.382 124.656 51.7537 125.147 52.2541C125.637 52.7496 125.883 53.3884 125.883 54.1705C125.883 54.8118 125.698 55.385 125.329 55.8902C124.965 56.3954 124.455 56.7938 123.799 57.0853C123.143 57.3767 122.38 57.5225 121.511 57.5225C120.369 57.5225 119.424 57.2747 118.676 56.7792C117.928 56.2837 117.454 55.5599 117.255 54.6077L118.887 54.1997C119.043 54.802 119.337 55.2538 119.769 55.555C120.206 55.8562 120.777 56.0068 121.481 56.0068C122.283 56.0068 122.919 55.8368 123.391 55.4967C123.867 55.1518 124.105 54.7389 124.105 54.258C124.105 53.8693 123.969 53.5438 123.697 53.2815C123.425 53.0143 123.007 52.8151 122.443 52.684L120.578 52.2468C119.553 52.0039 118.8 51.6274 118.319 51.1173C117.843 50.6024 117.605 49.9587 117.605 49.1863C117.605 48.5547 117.782 47.9961 118.137 47.5103C118.496 47.0245 118.984 46.6431 119.601 46.3662C120.223 46.0893 120.928 45.9509 121.715 45.9509C122.822 45.9509 123.692 46.1938 124.323 46.6796C124.96 47.1654 125.412 47.8066 125.679 48.6033Z" fill="#EFF1F9"/>
</svg>
