<svg width="139" height="55" viewBox="0 0 139 55" fill="none" xmlns="http://www.w3.org/2000/svg">
<g clip-path="url(#clip0_7837_201867)">
<path d="M31.616 21H52V30.204C52 43.0615 41.5615 53.5 28.704 53.5H0V52.616C0 35.1669 14.1669 21 31.616 21Z" fill="#009D77"/>
<path d="M23.296 1.5H52V2.384C52 19.8331 37.8331 34 20.384 34H0V24.796C0 11.9385 10.4385 1.5 23.296 1.5Z" fill="#01A6FF"/>
</g>
<path d="M58.2656 7.03397C58.2656 5.05073 59.0705 3.51812 60.6802 2.43372C62.2887 1.34933 64.5985 0.807129 67.6095 0.807129C70.6205 0.807129 72.9604 1.05895 74.634 1.56018V6.12187C72.7676 5.51341 70.5615 5.20977 68.0192 5.20977C65.4769 5.20977 64.2045 6.00259 64.2045 7.58942V8.65936C64.2045 9.45217 64.3816 10.0679 64.7359 10.504C65.0889 10.9414 65.7817 11.3836 66.8119 11.833L72.364 14.4115C74.9713 15.5754 76.2738 17.3466 76.2738 19.7262V22.0661C76.2738 24.0758 75.3882 25.6289 73.6195 26.7266C71.8483 27.8242 69.3216 28.3725 66.0383 28.3725C62.755 28.3725 60.2922 28.0821 58.6512 27.4989V22.8987C60.7103 23.6132 63.0454 23.9686 65.6528 23.9686C68.8397 23.9686 70.4325 23.1493 70.4325 21.5094V20.4781C70.4325 19.7901 70.2639 19.2551 69.9253 18.8707C69.5879 18.4876 68.9674 18.0972 68.0662 17.7008L62.7562 15.3212C59.7621 13.9729 58.2656 12.0282 58.2656 9.49073V7.03156V7.03397Z" fill="white"/>
<path d="M80.5961 5.64612C82.4312 5.14489 84.8614 4.89307 87.8869 4.89307C90.9123 4.89307 93.1185 5.44129 94.5029 6.53894C95.8861 7.63659 96.5789 9.28246 96.5789 11.4766V28.175H91.0738V26.5099C89.8195 27.6991 88.0568 28.2943 85.7868 28.2943C83.5168 28.2943 81.8516 27.8316 80.7901 26.9063C79.7274 25.9809 79.1973 24.5664 79.1973 22.6627V21.3132C79.1973 19.7011 79.6636 18.4311 80.5973 17.5058C81.5311 16.5804 83.0433 15.8792 85.1361 15.4033L90.9774 14.0948V11.4368C90.9449 10.6175 90.6557 10.0235 90.1087 9.65236C89.5605 9.28246 88.305 9.09691 86.3434 9.09691C84.3819 9.09691 82.4649 9.37403 80.5973 9.92948V5.64612H80.5961ZM84.8928 21.512V22.6627C84.8928 24.011 85.7458 24.6857 87.4519 24.6857C88.7725 24.6857 89.9304 24.3953 90.9292 23.8134V18.0227L87.5013 18.8155C86.4386 19.0541 85.7386 19.3577 85.4012 19.7276C85.0626 20.0987 84.894 20.6927 84.894 21.5132L84.8928 21.512Z" fill="white"/>
<path d="M116.6 6.26128C115.473 5.39979 113.993 4.96965 112.158 4.96965C110.323 4.96965 108.426 5.35641 106.462 6.12272V4.92627C104.25 5.007 102.414 5.24677 100.959 5.6492V35.758L106.8 34.4062V28.1757H111C113.221 28.1757 114.991 27.6793 116.31 26.6865C117.63 25.6936 118.29 24.2345 118.29 22.3007V10.0482C118.29 8.38429 117.727 7.12157 116.601 6.26128H116.6ZM112.399 21.6296C112.399 23.0598 111.45 23.7755 109.551 23.7755H106.799V10.129C107.893 9.62532 109.02 9.36988 110.179 9.36988C111.66 9.36988 112.399 9.94582 112.399 11.0772V21.6296Z" fill="white"/>
<path d="M122.61 5.64612C124.445 5.14489 126.875 4.89307 129.901 4.89307C132.926 4.89307 135.132 5.44129 136.517 6.53894C137.9 7.63659 138.593 9.28246 138.593 11.4766V28.175H133.087V26.5099C131.833 27.6991 130.07 28.2943 127.8 28.2943C125.53 28.2943 123.865 27.8316 122.804 26.9063C121.741 25.9809 121.211 24.5664 121.211 22.6627V21.3132C121.211 19.7011 121.677 18.4311 122.611 17.5058C123.545 16.5804 125.057 15.8792 127.15 15.4033L132.991 14.0948V11.4368C132.959 10.6175 132.669 10.0235 132.122 9.65236C131.574 9.28246 130.319 9.09691 128.357 9.09691C126.396 9.09691 124.479 9.37403 122.611 9.92948V5.64612H122.61ZM126.906 21.512V22.6627C126.906 24.011 127.759 24.6857 129.466 24.6857C130.786 24.6857 131.944 24.3953 132.943 23.8134V18.0227L129.515 18.8155C128.452 19.0541 127.752 19.3577 127.415 19.7276C127.076 20.0987 126.908 20.6927 126.908 21.5132L126.906 21.512Z" fill="white"/>
<path d="M62.0627 38.1127V50.3623H61.0227V38.1127H58.2656V36.9634H64.8198V38.1127H62.0627Z" fill="white"/>
<path d="M71.0031 47.7367C71.0031 48.1229 70.9386 48.4873 70.8096 48.8299C70.686 49.1725 70.514 49.4715 70.2937 49.7269C70.0733 49.9823 69.8154 50.1848 69.5198 50.3343C69.2242 50.4775 68.9098 50.5492 68.5765 50.5492H67.9155C67.5823 50.5492 67.2679 50.4775 66.9723 50.3343C66.6767 50.1848 66.4187 49.9823 66.1983 49.7269C65.978 49.4715 65.8033 49.1725 65.6743 48.8299C65.5507 48.4873 65.4889 48.1229 65.4889 47.7367V43.4199C65.4889 43.0337 65.5507 42.6693 65.6743 42.3267C65.8033 41.9841 65.978 41.6851 66.1983 41.4297C66.4187 41.1743 66.6767 40.975 66.9723 40.8317C67.2679 40.6822 67.5823 40.6074 67.9155 40.6074H68.5765C68.9098 40.6074 69.2242 40.6822 69.5198 40.8317C69.8154 40.975 70.0733 41.1743 70.2937 41.4297C70.514 41.6851 70.686 41.9841 70.8096 42.3267C70.9386 42.6693 71.0031 43.0337 71.0031 43.4199V45.6717H66.4805V47.8021C66.4805 48.0326 66.5181 48.2506 66.5934 48.4562C66.6686 48.6555 66.7707 48.8299 66.8997 48.9794C67.0287 49.1289 67.1792 49.2473 67.3512 49.3345C67.5285 49.4217 67.7166 49.4653 67.9155 49.4653H68.5765C68.7754 49.4653 68.9608 49.4217 69.1328 49.3345C69.3102 49.2473 69.4633 49.1289 69.5923 48.9794C69.7213 48.8299 69.8234 48.6555 69.8987 48.4562C69.9739 48.2506 70.0115 48.0326 70.0115 47.8021V47.1667L71.0031 47.3536V47.7367ZM70.0115 43.3545C70.0115 43.124 69.9739 42.9091 69.8987 42.7098C69.8234 42.5042 69.7213 42.3267 69.5923 42.1772C69.4633 42.0277 69.3102 41.9093 69.1328 41.8221C68.9608 41.7349 68.7754 41.6913 68.5765 41.6913H67.9155C67.7166 41.6913 67.5285 41.7349 67.3512 41.8221C67.1792 41.9093 67.0287 42.0277 66.8997 42.1772C66.7707 42.3267 66.6686 42.5042 66.5934 42.7098C66.5181 42.9091 66.4805 43.124 66.4805 43.3545V44.7747H70.0115V43.3545Z" fill="white"/>
<path d="M78.5005 47.7367C78.5005 48.1229 78.436 48.4873 78.307 48.8299C78.1834 49.1725 78.0114 49.4715 77.7911 49.7269C77.5707 49.9823 77.3127 50.1848 77.0171 50.3343C76.7215 50.4775 76.4071 50.5492 76.0739 50.5492H75.4129C75.0796 50.5492 74.7652 50.4775 74.4696 50.3343C74.174 50.1848 73.9161 49.9823 73.6957 49.7269C73.4754 49.4715 73.3007 49.1725 73.1717 48.8299C73.0481 48.4873 72.9863 48.1229 72.9863 47.7367V43.4199C72.9863 43.0337 73.0481 42.6693 73.1717 42.3267C73.3007 41.9841 73.4754 41.6851 73.6957 41.4297C73.9161 41.1743 74.174 40.975 74.4696 40.8317C74.7652 40.6822 75.0796 40.6074 75.4129 40.6074H76.0739C76.4071 40.6074 76.7215 40.6822 77.0171 40.8317C77.3127 40.975 77.5707 41.1743 77.7911 41.4297C78.0114 41.6851 78.1834 41.9841 78.307 42.3267C78.436 42.6693 78.5005 43.0337 78.5005 43.4199V43.803L77.5089 43.9899V43.3545C77.5089 43.124 77.4713 42.9091 77.396 42.7098C77.3208 42.5042 77.2187 42.3267 77.0897 42.1772C76.9607 42.0277 76.8075 41.9093 76.6302 41.8221C76.4582 41.7349 76.2728 41.6913 76.0739 41.6913H75.4129C75.214 41.6913 75.0259 41.7349 74.8485 41.8221C74.6766 41.9093 74.5261 42.0277 74.3971 42.1772C74.2681 42.3267 74.166 42.5042 74.0907 42.7098C74.0155 42.9091 73.9779 43.124 73.9779 43.3545V47.8021C73.9779 48.0326 74.0155 48.2506 74.0907 48.4562C74.166 48.6555 74.2681 48.8299 74.3971 48.9794C74.5261 49.1289 74.6766 49.2473 74.8485 49.3345C75.0259 49.4217 75.214 49.4653 75.4129 49.4653H76.0739C76.2728 49.4653 76.4582 49.4217 76.6302 49.3345C76.8075 49.2473 76.9607 49.1289 77.0897 48.9794C77.2187 48.8299 77.3208 48.6555 77.396 48.4562C77.4713 48.2506 77.5089 48.0326 77.5089 47.8021V47.1667L78.5005 47.3536V47.7367Z" fill="white"/>
<path d="M85.0063 50.3623V43.3545C85.0063 43.124 84.9687 42.9091 84.8934 42.7098C84.8182 42.5042 84.7161 42.3267 84.5871 42.1772C84.4581 42.0277 84.3049 41.9093 84.1276 41.8221C83.9556 41.7349 83.7701 41.6913 83.5713 41.6913H82.9102C82.7114 41.6913 82.5233 41.7349 82.3459 41.8221C82.1739 41.9093 82.0234 42.0277 81.8945 42.1772C81.7655 42.3267 81.6634 42.5042 81.5881 42.7098C81.5129 42.9091 81.4753 43.124 81.4753 43.3545V50.3623H80.4837V36.9634H81.4753V41.5979C81.701 41.2864 81.9724 41.0435 82.2895 40.8691C82.6066 40.6946 82.9505 40.6074 83.3214 40.6074H83.5713C83.9045 40.6074 84.2189 40.6822 84.5145 40.8317C84.8101 40.975 85.0681 41.1743 85.2884 41.4297C85.5088 41.6851 85.6808 41.9841 85.8044 42.3267C85.9334 42.6693 85.9979 43.0337 85.9979 43.4199V50.3623H85.0063Z" fill="white"/>
<path d="M92.5037 50.3623V43.3545C92.5037 43.124 92.466 42.9091 92.3908 42.7098C92.3155 42.5042 92.2134 42.3267 92.0844 42.1772C91.9555 42.0277 91.8023 41.9093 91.6249 41.8221C91.4529 41.7349 91.2675 41.6913 91.0687 41.6913H90.4076C90.2088 41.6913 90.0207 41.7349 89.8433 41.8221C89.6713 41.9093 89.5208 42.0277 89.3918 42.1772C89.2629 42.3267 89.1607 42.5042 89.0855 42.7098C89.0103 42.9091 88.9726 43.124 88.9726 43.3545V50.3623H87.981V40.7943H88.3116L88.8517 41.7661C89.0774 41.411 89.3596 41.1307 89.6982 40.9251C90.0421 40.7133 90.4157 40.6074 90.8188 40.6074H91.0687C91.4019 40.6074 91.7163 40.6822 92.0119 40.8317C92.3075 40.975 92.5655 41.1743 92.7858 41.4297C93.0062 41.6851 93.1781 41.9841 93.3018 42.3267C93.4307 42.6693 93.4952 43.0337 93.4952 43.4199V50.3623H92.5037Z" fill="white"/>
<path d="M100.993 47.7367C100.993 48.1229 100.928 48.4873 100.799 48.8299C100.676 49.1725 100.504 49.4715 100.283 49.7269C100.063 49.9823 99.8049 50.1848 99.5093 50.3343C99.2137 50.4775 98.8993 50.5492 98.5661 50.5492H97.905C97.5718 50.5492 97.2574 50.4775 96.9618 50.3343C96.6662 50.1848 96.4082 49.9823 96.1879 49.7269C95.9675 49.4715 95.7928 49.1725 95.6638 48.8299C95.5402 48.4873 95.4784 48.1229 95.4784 47.7367V43.4199C95.4784 43.0337 95.5402 42.6693 95.6638 42.3267C95.7928 41.9841 95.9675 41.6851 96.1879 41.4297C96.4082 41.1743 96.6662 40.975 96.9618 40.8317C97.2574 40.6822 97.5718 40.6074 97.905 40.6074H98.5661C98.8993 40.6074 99.2137 40.6822 99.5093 40.8317C99.8049 40.975 100.063 41.1743 100.283 41.4297C100.504 41.6851 100.676 41.9841 100.799 42.3267C100.928 42.6693 100.993 43.0337 100.993 43.4199V47.7367ZM100.001 43.3545C100.001 43.124 99.9634 42.9091 99.8882 42.7098C99.8129 42.5042 99.7108 42.3267 99.5818 42.1772C99.4528 42.0277 99.2997 41.9093 99.1223 41.8221C98.9503 41.7349 98.7649 41.6913 98.5661 41.6913H97.905C97.7061 41.6913 97.518 41.7349 97.3407 41.8221C97.1687 41.9093 97.0182 42.0277 96.8892 42.1772C96.7602 42.3267 96.6581 42.5042 96.5829 42.7098C96.5076 42.9091 96.47 43.124 96.47 43.3545V47.8021C96.47 48.0326 96.5076 48.2506 96.5829 48.4562C96.6581 48.6555 96.7602 48.8299 96.8892 48.9794C97.0182 49.1289 97.1687 49.2473 97.3407 49.3345C97.518 49.4217 97.7061 49.4653 97.905 49.4653H98.5661C98.7649 49.4653 98.9503 49.4217 99.1223 49.3345C99.2997 49.2473 99.4528 49.1289 99.5818 48.9794C99.7108 48.8299 99.8129 48.6555 99.8882 48.4562C99.9634 48.2506 100.001 48.0326 100.001 47.8021V43.3545Z" fill="white"/>
<path d="M103.306 50.3623V36.9634H104.298V50.3623H103.306Z" fill="white"/>
<path d="M111.973 47.7367C111.973 48.1229 111.908 48.4873 111.779 48.8299C111.656 49.1725 111.484 49.4715 111.263 49.7269C111.043 49.9823 110.785 50.1848 110.489 50.3343C110.194 50.4775 109.879 50.5492 109.546 50.5492H108.885C108.552 50.5492 108.237 50.4775 107.942 50.3343C107.646 50.1848 107.388 49.9823 107.168 49.7269C106.948 49.4715 106.773 49.1725 106.644 48.8299C106.52 48.4873 106.458 48.1229 106.458 47.7367V43.4199C106.458 43.0337 106.52 42.6693 106.644 42.3267C106.773 41.9841 106.948 41.6851 107.168 41.4297C107.388 41.1743 107.646 40.975 107.942 40.8317C108.237 40.6822 108.552 40.6074 108.885 40.6074H109.546C109.879 40.6074 110.194 40.6822 110.489 40.8317C110.785 40.975 111.043 41.1743 111.263 41.4297C111.484 41.6851 111.656 41.9841 111.779 42.3267C111.908 42.6693 111.973 43.0337 111.973 43.4199V47.7367ZM110.981 43.3545C110.981 43.124 110.943 42.9091 110.868 42.7098C110.793 42.5042 110.691 42.3267 110.562 42.1772C110.433 42.0277 110.28 41.9093 110.102 41.8221C109.93 41.7349 109.745 41.6913 109.546 41.6913H108.885C108.686 41.6913 108.498 41.7349 108.321 41.8221C108.149 41.9093 107.998 42.0277 107.869 42.1772C107.74 42.3267 107.638 42.5042 107.563 42.7098C107.488 42.9091 107.45 43.124 107.45 43.3545V47.8021C107.45 48.0326 107.488 48.2506 107.563 48.4562C107.638 48.6555 107.74 48.8299 107.869 48.9794C107.998 49.1289 108.149 49.2473 108.321 49.3345C108.498 49.4217 108.686 49.4653 108.885 49.4653H109.546C109.745 49.4653 109.93 49.4217 110.102 49.3345C110.28 49.2473 110.433 49.1289 110.562 48.9794C110.691 48.8299 110.793 48.6555 110.868 48.4562C110.943 48.2506 110.981 48.0326 110.981 47.8021V43.3545Z" fill="white"/>
<path d="M119.551 51.5676C119.551 51.9538 119.486 52.3089 119.357 52.6328C119.234 52.9567 119.062 53.2339 118.841 53.4644C118.621 53.6949 118.363 53.8724 118.067 53.997C117.772 54.1278 117.457 54.1932 117.124 54.1932H116.713C116.38 54.1932 116.065 54.1278 115.77 53.997C115.474 53.8724 115.216 53.6949 114.996 53.4644C114.775 53.2339 114.601 52.9567 114.472 52.6328C114.348 52.3089 114.286 51.9538 114.286 51.5676V51.5303C114.286 51.1565 114.345 50.8139 114.464 50.5024C114.582 50.191 114.743 49.92 114.947 49.6895C114.689 49.5089 114.483 49.266 114.327 48.9607C114.176 48.6493 114.101 48.3067 114.101 47.9329C114.101 47.5965 114.163 47.2851 114.286 46.9985C114.41 46.7058 114.579 46.4691 114.794 46.2884C114.536 46.0268 114.332 45.7122 114.182 45.3447C114.031 44.9772 113.956 44.5754 113.956 44.1394V43.4199C113.956 43.0337 114.018 42.6693 114.141 42.3267C114.27 41.9841 114.445 41.6851 114.665 41.4297C114.886 41.1743 115.144 40.975 115.439 40.8317C115.735 40.6822 116.049 40.6074 116.382 40.6074H116.794C117.197 40.6074 117.567 40.7133 117.906 40.9251C118.25 41.1307 118.535 41.411 118.761 41.7661L119.301 40.7943H119.631V44.1394C119.631 44.5256 119.567 44.89 119.438 45.2326C119.314 45.5752 119.142 45.8742 118.922 46.1296C118.701 46.385 118.444 46.5874 118.148 46.7369C117.852 46.8802 117.538 46.9518 117.205 46.9518H115.77C115.657 46.9518 115.549 46.9799 115.447 47.0359C115.345 47.0858 115.254 47.1543 115.173 47.2415C115.098 47.3287 115.039 47.4346 114.996 47.5592C114.953 47.6775 114.931 47.8021 114.931 47.9329C114.931 48.0637 114.953 48.1883 114.996 48.3067C115.039 48.425 115.098 48.5309 115.173 48.6244C115.254 48.7116 115.345 48.7801 115.447 48.8299C115.549 48.8797 115.657 48.9047 115.77 48.9047H117.124C117.457 48.9047 117.772 48.9701 118.067 49.1009C118.363 49.2255 118.621 49.403 118.841 49.6335C119.062 49.864 119.234 50.1412 119.357 50.4651C119.486 50.789 119.551 51.144 119.551 51.5303V51.5676ZM118.648 43.3545C118.648 43.124 118.61 42.9091 118.535 42.7098C118.46 42.5042 118.355 42.3267 118.22 42.1772C118.091 42.0277 117.938 41.9093 117.761 41.8221C117.589 41.7349 117.404 41.6913 117.205 41.6913H116.382C116.184 41.6913 115.995 41.7349 115.818 41.8221C115.646 41.9093 115.496 42.0277 115.367 42.1772C115.238 42.3267 115.136 42.5042 115.06 42.7098C114.985 42.9091 114.947 43.124 114.947 43.3545V44.2048C114.947 44.4352 114.985 44.6533 115.06 44.8588C115.136 45.0582 115.238 45.2326 115.367 45.3821C115.496 45.5316 115.646 45.6499 115.818 45.7371C115.995 45.8243 116.184 45.868 116.382 45.868H117.205C117.404 45.868 117.589 45.8243 117.761 45.7371C117.938 45.6499 118.091 45.5316 118.22 45.3821C118.355 45.2326 118.46 45.0582 118.535 44.8588C118.61 44.6533 118.648 44.4352 118.648 44.2048V43.3545ZM118.607 51.4742C118.607 51.2437 118.57 51.035 118.495 50.8482C118.419 50.6675 118.317 50.5149 118.188 50.3903C118.059 50.2657 117.906 50.1692 117.729 50.1007C117.557 50.0321 117.371 49.9979 117.172 49.9979H116.665C116.466 49.9979 116.278 50.0321 116.1 50.1007C115.928 50.1692 115.778 50.2657 115.649 50.3903C115.52 50.5149 115.418 50.6675 115.342 50.8482C115.267 51.035 115.23 51.2437 115.23 51.4742V51.6237C115.23 51.8542 115.267 52.0597 115.342 52.2404C115.418 52.421 115.52 52.5736 115.649 52.6982C115.778 52.829 115.928 52.9287 116.1 52.9972C116.278 53.0657 116.466 53.1 116.665 53.1H117.172C117.371 53.1 117.557 53.0657 117.729 52.9972C117.906 52.9287 118.059 52.829 118.188 52.6982C118.317 52.5736 118.419 52.421 118.495 52.2404C118.57 52.0597 118.607 51.8542 118.607 51.6237V51.4742Z" fill="white"/>
<path d="M121.703 38.4958V36.9634H122.856V38.4958H121.703ZM121.784 50.3623V40.7943H122.775V50.3623H121.784Z" fill="white"/>
<path d="M130.611 47.7367C130.611 48.1229 130.547 48.4873 130.418 48.8299C130.294 49.1725 130.122 49.4715 129.902 49.7269C129.682 49.9823 129.424 50.1848 129.128 50.3343C128.832 50.4775 128.518 50.5492 128.185 50.5492H127.524C127.19 50.5492 126.876 50.4775 126.58 50.3343C126.285 50.1848 126.027 49.9823 125.807 49.7269C125.586 49.4715 125.412 49.1725 125.283 48.8299C125.159 48.4873 125.097 48.1229 125.097 47.7367V43.4199C125.097 43.0337 125.159 42.6693 125.283 42.3267C125.412 41.9841 125.586 41.6851 125.807 41.4297C126.027 41.1743 126.285 40.975 126.58 40.8317C126.876 40.6822 127.19 40.6074 127.524 40.6074H128.185C128.518 40.6074 128.832 40.6822 129.128 40.8317C129.424 40.975 129.682 41.1743 129.902 41.4297C130.122 41.6851 130.294 41.9841 130.418 42.3267C130.547 42.6693 130.611 43.0337 130.611 43.4199V45.6717H126.089V47.8021C126.089 48.0326 126.126 48.2506 126.202 48.4562C126.277 48.6555 126.379 48.8299 126.508 48.9794C126.637 49.1289 126.787 49.2473 126.959 49.3345C127.137 49.4217 127.325 49.4653 127.524 49.4653H128.185C128.384 49.4653 128.569 49.4217 128.741 49.3345C128.918 49.2473 129.072 49.1289 129.201 48.9794C129.329 48.8299 129.432 48.6555 129.507 48.4562C129.582 48.2506 129.62 48.0326 129.62 47.8021V47.1667L130.611 47.3536V47.7367ZM129.62 43.3545C129.62 43.124 129.582 42.9091 129.507 42.7098C129.432 42.5042 129.329 42.3267 129.201 42.1772C129.072 42.0277 128.918 41.9093 128.741 41.8221C128.569 41.7349 128.384 41.6913 128.185 41.6913H127.524C127.325 41.6913 127.137 41.7349 126.959 41.8221C126.787 41.9093 126.637 42.0277 126.508 42.1772C126.379 42.3267 126.277 42.5042 126.202 42.7098C126.126 42.9091 126.089 43.124 126.089 43.3545V44.7747H129.62V43.3545Z" fill="white"/>
<path d="M138.27 47.9329C138.27 48.3191 138.203 48.6742 138.068 48.9981C137.934 49.3158 137.751 49.5899 137.52 49.8204C137.289 50.0508 137.02 50.2315 136.714 50.3623C136.413 50.4869 136.096 50.5492 135.763 50.5492H135.102C134.768 50.5492 134.449 50.4775 134.142 50.3343C133.841 50.1848 133.575 49.9823 133.344 49.7269C133.118 49.4715 132.936 49.1725 132.796 48.8299C132.662 48.4873 132.594 48.1229 132.594 47.7367V47.3536L133.586 47.1667V47.8021C133.586 48.0326 133.626 48.2506 133.707 48.4562C133.793 48.6555 133.906 48.8299 134.046 48.9794C134.185 49.1289 134.347 49.2473 134.529 49.3345C134.712 49.4217 134.903 49.4653 135.102 49.4653H135.763C135.962 49.4653 136.152 49.431 136.335 49.3625C136.518 49.294 136.679 49.1974 136.819 49.0729C136.964 48.942 137.077 48.7863 137.157 48.6057C137.243 48.425 137.286 48.2195 137.286 47.989C137.286 47.6464 137.222 47.3661 137.093 47.148C136.964 46.93 136.792 46.7494 136.577 46.6061C136.367 46.4566 136.125 46.3351 135.851 46.2417C135.583 46.142 135.306 46.0455 135.021 45.952C134.736 45.8524 134.457 45.7403 134.183 45.6157C133.914 45.4911 133.672 45.3291 133.457 45.1298C133.247 44.9242 133.078 44.6688 132.949 44.3636C132.82 44.0584 132.756 43.6784 132.756 43.2237C132.756 42.8375 132.82 42.4855 132.949 42.1678C133.078 41.8439 133.253 41.5667 133.473 41.3362C133.694 41.1058 133.949 40.9282 134.239 40.8037C134.535 40.6728 134.849 40.6074 135.182 40.6074H135.763C136.096 40.6074 136.41 40.6822 136.706 40.8317C137.002 40.975 137.26 41.1743 137.48 41.4297C137.7 41.6851 137.872 41.9841 137.996 42.3267C138.125 42.6693 138.189 43.0337 138.189 43.4199V43.4573L137.198 43.6441V43.3545C137.198 43.124 137.16 42.9091 137.085 42.7098C137.01 42.5042 136.907 42.3267 136.778 42.1772C136.65 42.0277 136.496 41.9093 136.319 41.8221C136.147 41.7349 135.962 41.6913 135.763 41.6913H135.182C134.983 41.6913 134.795 41.7256 134.618 41.7941C134.446 41.8626 134.295 41.9623 134.167 42.0931C134.038 42.2177 133.935 42.3703 133.86 42.5509C133.785 42.7316 133.747 42.9371 133.747 43.1676C133.747 43.4978 133.812 43.7687 133.941 43.9805C134.07 44.1861 134.239 44.3605 134.449 44.5038C134.664 44.647 134.905 44.7685 135.174 44.8682C135.448 44.9616 135.725 45.0613 136.005 45.1672C136.289 45.2668 136.566 45.3821 136.835 45.5129C137.109 45.6437 137.351 45.8119 137.56 46.0175C137.775 46.223 137.947 46.4815 138.076 46.793C138.205 47.0982 138.27 47.4782 138.27 47.9329Z" fill="white"/>
<defs>
<clipPath id="clip0_7837_201867">
<rect width="52" height="52" fill="white" transform="translate(0 1.5)"/>
</clipPath>
</defs>
</svg>
