<svg width="36" height="36" viewBox="0 0 36 36" fill="none" xmlns="http://www.w3.org/2000/svg">
<circle cx="18" cy="18" r="18" fill="#EBF0F3" fill-opacity="0.2"/>
<path fill-rule="evenodd" clip-rule="evenodd" d="M24.8493 12.1515C25.3179 12.6201 25.3179 13.3799 24.8493 13.8485L18.8493 19.8485C18.3807 20.3171 17.6209 20.3171 17.1523 19.8485L11.1523 13.8485C10.6836 13.3799 10.6836 12.6201 11.1523 12.1515C11.6209 11.6828 12.3807 11.6828 12.8493 12.1515L18.0008 17.3029L23.1523 12.1515C23.6209 11.6828 24.3807 11.6828 24.8493 12.1515ZM24.8493 19.3515C25.3179 19.8201 25.3179 20.5799 24.8493 21.0485L18.8493 27.0485C18.3807 27.5171 17.6209 27.5171 17.1523 27.0485L11.1523 21.0485C10.6836 20.5799 10.6836 19.8201 11.1523 19.3515C11.6209 18.8828 12.3807 18.8828 12.8493 19.3515L18.0008 24.5029L23.1523 19.3515C23.6209 18.8828 24.3807 18.8828 24.8493 19.3515Z" fill="white"/>
</svg>
