<?xml version="1.0" standalone="no"?>
<!DOCTYPE svg PUBLIC "-//W3C//DTD SVG 20010904//EN"
 "http://www.w3.org/TR/2001/REC-SVG-20010904/DTD/svg10.dtd">
<svg version="1.0" xmlns="http://www.w3.org/2000/svg"
 width="2224.000000pt" height="2224.000000pt" viewBox="0 0 2224.000000 2224.000000"
 preserveAspectRatio="xMidYMid meet">
<metadata>
Created by potrace 1.14, written by Peter Selinger 2001-2017
</metadata>
<g transform="translate(0.000000,2224.000000) scale(0.100000,-0.100000)"
fill="#000000" stroke="none">
<path d="M10509 15386 c-2 -2 -40 -7 -84 -11 -44 -4 -93 -9 -110 -11 -16 -3
-46 -7 -65 -10 -19 -2 -73 -14 -120 -25 -47 -11 -92 -22 -101 -24 -125 -26
-375 -151 -469 -234 -14 -12 -34 -30 -45 -40 -74 -66 -153 -179 -195 -281 -55
-134 -63 -203 -65 -550 -1 -228 2 -325 11 -352 7 -20 11 -38 8 -41 -2 -2 3
-24 12 -48 8 -24 18 -54 20 -66 5 -27 66 -147 76 -151 4 -2 8 -8 8 -13 0 -5
22 -37 50 -72 134 -168 304 -287 595 -417 28 -12 78 -35 113 -51 35 -16 65
-29 67 -29 2 0 41 -17 87 -39 46 -21 126 -57 178 -81 52 -23 114 -51 138 -61
45 -20 104 -46 180 -80 292 -130 382 -220 398 -397 2 -23 6 -48 10 -54 4 -6 3
-9 -2 -5 -7 4 -11 -50 -4 -60 2 -4 2 -62 0 -65 -1 -2 -2 -30 -4 -63 -4 -117
-69 -209 -188 -268 -86 -41 -106 -49 -134 -52 -11 -1 -25 -5 -31 -8 -6 -4 -28
-9 -48 -13 -21 -3 -47 -7 -59 -10 -134 -26 -564 -21 -786 10 -19 2 -57 7 -85
11 -60 7 -154 25 -175 33 -8 3 -18 4 -23 4 -9 -2 -97 16 -117 25 -8 3 -22 7
-30 8 -8 1 -22 4 -30 7 -39 14 -157 48 -166 48 -7 0 -12 -671 -5 -726 1 -7
109 -43 151 -49 3 -1 28 -6 55 -13 28 -6 64 -14 80 -16 17 -3 41 -7 55 -10 14
-3 48 -8 75 -11 28 -4 64 -8 80 -10 164 -19 238 -24 472 -30 117 -2 216 -5
220 -6 4 -1 10 -1 13 0 3 1 68 4 145 6 77 3 160 7 185 10 111 12 147 16 170
20 14 3 40 7 58 10 78 12 100 17 157 31 33 9 69 18 80 21 39 9 50 11 50 13 0
1 7 3 15 5 35 9 107 36 133 51 15 8 27 13 27 10 0 -10 191 95 216 119 6 5 22
17 35 25 81 52 191 179 247 283 84 157 98 254 96 627 -2 146 -5 276 -8 290 -4
14 -9 41 -12 60 -11 70 -53 173 -105 257 -34 55 -46 70 -124 148 -112 113
-231 185 -545 328 -30 13 -98 45 -150 69 -52 25 -117 55 -145 68 -27 13 -87
40 -132 61 -46 22 -87 39 -93 39 -5 0 -10 5 -10 10 0 6 -6 10 -13 10 -14 0
-257 111 -287 130 -8 6 -27 15 -42 21 -16 6 -28 14 -28 18 0 3 -14 12 -32 20
-42 19 -132 109 -156 157 -34 68 -45 143 -45 299 -1 164 3 209 21 241 6 12 9
24 6 27 -12 12 115 128 163 149 26 12 50 23 53 23 3 1 12 5 20 8 8 4 26 9 40
11 14 3 36 8 50 11 76 18 365 24 555 11 137 -10 199 -15 225 -20 14 -2 45 -7
70 -10 25 -3 56 -8 70 -11 14 -3 39 -7 55 -10 17 -3 50 -9 75 -15 25 -6 54
-12 65 -14 59 -13 133 -34 151 -44 44 -24 46 -13 46 299 0 399 -1 433 -8 426
-3 -3 -24 1 -46 9 -23 8 -43 12 -46 9 -3 -3 -11 0 -19 7 -7 6 -16 8 -19 5 -3
-3 -17 -2 -30 3 -24 9 -100 23 -194 35 -25 3 -61 8 -80 11 -19 2 -66 7 -105
10 -38 3 -88 7 -110 10 -49 6 -700 16 -706 10z"/>
<path d="M3526 15243 c-1 -1 -44 -5 -96 -8 -52 -3 -108 -8 -125 -9 -91 -10
-153 -20 -172 -27 -14 -5 -23 -5 -23 1 0 6 -8 6 -22 0 -13 -5 -41 -12 -63 -16
-22 -4 -42 -8 -45 -9 -40 -9 -147 -29 -152 -27 -5 1 -8 -3 -8 -9 0 -5 -4 -8
-8 -5 -11 7 -213 -50 -322 -91 -8 -3 -21 -7 -28 -9 -11 -2 -34 -10 -147 -54
-100 -39 -425 -199 -425 -209 0 -4 -6 -8 -13 -8 -6 0 -59 -30 -117 -67 -58
-36 -114 -72 -125 -79 -30 -19 -276 -203 -310 -232 -209 -180 -371 -347 -528
-545 -81 -101 -237 -322 -237 -335 0 -3 -8 -18 -19 -33 -26 -39 -48 -76 -51
-87 -1 -5 -11 -23 -22 -38 -26 -37 -151 -289 -173 -352 -10 -27 -22 -54 -26
-60 -18 -24 -130 -361 -144 -435 -2 -8 -4 -15 -5 -15 -1 0 -3 -7 -5 -15 -2 -8
-8 -35 -14 -60 -7 -25 -14 -56 -16 -70 -2 -14 -7 -36 -10 -50 -3 -14 -8 -42
-11 -63 -3 -21 -9 -48 -13 -60 -5 -12 -8 -37 -7 -55 0 -17 -2 -32 -5 -32 -3 0
-6 -6 -6 -12 -1 -37 -16 -176 -21 -193 -3 -11 -7 -417 -9 -903 l-4 -882 484 2
485 3 -36 -50 c-59 -82 -156 -230 -153 -234 2 -2 -2 -7 -7 -10 -13 -8 -102
-156 -102 -170 0 -6 -3 -11 -7 -11 -5 0 -13 -10 -19 -23 -6 -12 -52 -101 -101
-197 -50 -96 -111 -227 -138 -290 -26 -63 -50 -119 -53 -125 -4 -5 -7 -14 -8
-20 -2 -5 -26 -73 -54 -150 -28 -77 -52 -146 -53 -155 -2 -8 -5 -19 -9 -25 -8
-13 -89 -314 -92 -340 -1 -12 -5 -25 -8 -30 -5 -8 -15 -55 -24 -110 -1 -5 -3
-12 -4 -15 -1 -3 -3 -16 -6 -30 -2 -14 -7 -38 -9 -55 -3 -16 -8 -43 -11 -60
-2 -16 -7 -39 -9 -51 -7 -34 -19 -128 -20 -156 0 -16 -2 -28 -6 -28 -3 0 -5
-10 -6 -22 -2 -38 -11 -153 -13 -153 -4 0 -10 -133 -16 -350 l-6 -240 2353 0
c1295 0 2359 4 2366 8 6 4 14 3 18 -3 4 -6 9 -8 13 -6 4 2 41 7 82 11 41 3 89
8 105 10 17 2 55 6 85 9 30 3 66 8 80 11 14 2 45 7 70 10 25 4 73 13 108 20
34 8 74 17 90 20 95 17 275 69 413 118 149 54 225 85 354 147 66 31 122 56
125 56 3 -1 19 9 37 22 17 12 35 22 41 22 5 0 15 7 22 15 7 8 16 13 20 10 5
-3 10 -2 12 3 1 4 37 27 78 51 41 25 77 48 78 53 2 4 8 8 14 8 8 0 59 33 113
73 246 182 341 263 522 446 57 57 103 108 103 113 0 5 5 6 10 3 6 -3 10 -1 10
5 0 6 6 17 13 25 36 38 108 126 173 213 40 53 78 102 84 109 5 7 10 15 10 18
0 6 40 66 51 75 7 7 69 109 69 115 0 2 13 24 30 48 16 25 30 50 30 56 0 6 5
11 11 11 5 0 8 4 5 9 -4 5 -3 11 1 13 14 6 199 394 207 433 1 8 35 104 54 155
3 8 6 18 7 23 2 4 3 8 5 10 1 1 3 9 5 17 2 8 10 35 18 60 18 52 72 268 81 321
3 20 8 42 10 50 3 8 7 30 10 49 3 19 7 44 10 55 2 11 7 45 10 75 4 30 10 73
12 95 3 22 8 60 11 85 3 25 8 440 10 923 l4 877 -480 0 c-265 0 -481 3 -481 6
0 3 13 23 29 43 15 20 55 77 87 126 32 50 62 91 67 93 4 2 7 7 7 12 0 4 28 54
63 112 92 153 92 154 149 268 29 58 57 108 61 111 5 3 8 9 7 13 0 3 12 34 28
69 39 83 55 120 87 197 46 111 48 115 51 130 2 9 11 34 20 55 10 22 19 43 20
48 1 4 2 8 4 10 1 1 3 9 5 17 2 8 15 51 30 95 15 44 31 94 35 110 5 17 18 64
30 105 12 41 23 82 25 90 2 8 15 62 28 120 14 58 28 121 31 141 3 20 8 42 10
50 3 8 8 32 11 54 3 22 10 67 15 100 5 33 12 76 14 95 3 19 7 51 10 70 5 33
11 99 22 227 3 32 8 164 11 293 l5 235 -2362 0 c-1299 0 -2362 -1 -2364 -2z"/>
<path d="M13717 14734 c-1 -2 -54 -5 -117 -8 -63 -3 -115 -5 -115 -6 0 -1 -25
-3 -55 -5 -88 -6 -225 -22 -275 -32 -16 -3 -41 -7 -55 -8 -14 -1 -34 -5 -45
-8 -11 -3 -40 -9 -65 -12 -24 -4 -47 -8 -51 -10 -3 -2 -20 -7 -36 -10 -17 -3
-41 -9 -54 -13 l-23 -9 -1 -329 c0 -181 1 -335 3 -341 2 -7 8 -10 13 -7 9 5
29 10 79 20 14 3 39 9 55 14 45 14 214 50 260 54 22 3 58 7 80 10 22 3 56 8
75 11 165 23 625 23 730 -1 14 -3 41 -8 60 -10 42 -7 111 -29 148 -48 37 -19
133 -116 116 -116 -4 0 -2 -6 4 -12 29 -37 40 -145 39 -368 l-2 -224 -95 -23
c-52 -12 -108 -25 -125 -29 -47 -9 -60 -12 -60 -14 0 -1 -11 -3 -25 -5 -33 -6
-65 -13 -65 -15 0 -1 -9 -3 -20 -5 -29 -4 -72 -13 -93 -19 -9 -3 -29 -8 -44
-11 -16 -3 -38 -7 -50 -10 -13 -3 -33 -7 -46 -9 -13 -3 -31 -7 -40 -10 -9 -3
-28 -7 -42 -10 -14 -2 -86 -18 -161 -35 -75 -18 -146 -34 -158 -36 -50 -9
-297 -98 -303 -108 -4 -7 -8 -8 -8 -4 0 9 -186 -87 -206 -107 -6 -6 -22 -18
-34 -26 -34 -23 -123 -111 -152 -150 -42 -57 -87 -145 -108 -211 -38 -119 -44
-171 -44 -424 0 -262 4 -315 39 -445 37 -141 131 -284 242 -367 21 -15 40 -31
43 -34 12 -15 151 -78 215 -99 77 -24 79 -24 145 -35 25 -4 54 -9 65 -12 11
-2 48 -6 82 -8 34 -2 66 -5 70 -8 4 -2 78 -3 163 -2 253 4 425 39 590 119 97
47 108 55 185 116 27 22 52 40 55 40 3 0 5 -58 4 -129 l-1 -130 438 0 c328 0
438 3 441 12 7 22 1 2761 -6 2817 -10 80 -13 97 -36 180 -26 96 -38 129 -61
170 -4 8 -18 33 -30 55 -49 91 -148 196 -248 264 -85 58 -235 126 -321 146 -3
0 -14 4 -25 8 -56 18 -252 52 -370 63 -50 5 -564 12 -568 8z m767 -2106 c-8
-12 -8 -123 -1 -136 3 -4 1 -16 -3 -27 -4 -11 -3 -31 1 -43 5 -13 6 -29 2 -35
-9 -14 -10 -67 -1 -67 4 0 4 -10 0 -22 -4 -13 -6 -36 -5 -53 5 -54 4 -107 -1
-112 -2 -3 0 -16 5 -30 5 -14 6 -30 2 -36 -9 -14 -10 -67 -1 -67 4 0 4 -10 0
-22 -4 -13 -7 -34 -5 -48 2 -23 2 -37 3 -105 1 -59 -1 -92 -6 -106 -5 -18
-101 -67 -169 -88 -22 -7 -47 -15 -55 -18 -8 -3 -22 -7 -30 -9 -8 -2 -31 -6
-50 -10 -61 -12 -102 -15 -225 -17 -127 -2 -181 4 -230 24 -17 7 -32 13 -35
14 -63 16 -142 110 -157 190 -6 30 -7 334 -1 380 6 48 12 66 41 125 22 44 73
99 93 100 5 0 16 6 23 13 6 6 15 12 19 13 4 0 25 8 47 18 44 20 307 88 313 81
3 -2 12 0 22 5 9 5 28 11 41 14 13 2 65 14 114 26 50 11 101 23 115 26 14 2
48 11 75 18 64 18 68 18 59 4z"/>
<path d="M20498 14735 c-2 -2 -68 -6 -148 -9 -80 -3 -167 -8 -194 -10 -124
-11 -277 -30 -338 -42 -15 -3 -41 -7 -58 -9 -18 -3 -41 -7 -52 -11 -11 -3 -30
-8 -41 -10 -12 -2 -43 -9 -69 -15 l-48 -12 0 -343 0 -342 107 29 c59 16 123
31 143 34 19 3 69 12 111 20 70 13 125 21 204 30 198 23 610 23 725 0 14 -3
41 -8 60 -11 143 -22 237 -89 281 -200 22 -55 24 -75 27 -315 l3 -256 -53 -12
c-29 -6 -65 -13 -80 -16 -15 -2 -44 -8 -65 -14 -21 -6 -56 -13 -78 -17 -22 -3
-43 -8 -46 -10 -6 -3 -156 -38 -209 -48 -14 -2 -32 -7 -40 -10 -8 -3 -31 -7
-50 -10 -19 -3 -50 -10 -67 -15 -18 -5 -33 -8 -33 -6 0 3 -11 0 -26 -5 -14 -6
-39 -12 -57 -15 -18 -3 -61 -13 -97 -21 -36 -9 -72 -17 -80 -19 -45 -9 -109
-28 -143 -40 -20 -8 -38 -15 -40 -14 -8 2 -141 -48 -197 -74 -63 -29 -182 -98
-198 -114 -7 -7 -17 -13 -21 -13 -16 0 -140 -132 -174 -183 -67 -104 -109
-224 -125 -362 -8 -77 -8 -427 2 -515 4 -44 33 -171 50 -225 38 -121 151 -265
268 -344 75 -50 228 -113 308 -127 8 -2 26 -5 40 -7 14 -3 45 -8 70 -12 25 -5
71 -9 102 -9 32 -1 58 -4 58 -7 0 -10 301 -2 388 10 216 31 388 98 530 206 39
30 73 55 75 55 2 0 3 -54 2 -120 -1 -66 2 -124 5 -129 3 -5 191 -9 440 -8
l435 2 -1 1380 c0 1229 -4 1521 -21 1548 -2 4 -6 17 -9 30 -9 49 -13 64 -29
112 -74 219 -243 404 -455 499 -60 26 -76 33 -135 57 -51 20 -263 65 -350 74
-27 3 -68 8 -90 10 -42 6 -512 14 -517 10z m703 -2122 c4 -97 0 -893 -5 -901
-9 -15 -128 -69 -203 -92 -111 -34 -152 -40 -313 -45 -69 -2 -147 1 -175 7
-149 32 -243 117 -262 238 -14 85 -5 371 13 427 16 50 51 107 83 135 31 27
100 64 110 58 2 -1 7 2 10 7 6 9 89 37 136 47 11 3 54 13 95 24 41 11 80 17
87 15 7 -3 13 -1 13 4 0 5 9 9 20 10 21 2 156 33 275 63 92 24 115 24 116 3z"/>
<path d="M16710 14722 c0 -4 -24 -9 -53 -11 -91 -6 -122 -9 -122 -11 0 -1 -13
-3 -30 -4 -42 -4 -127 -16 -145 -21 -8 -2 -31 -6 -50 -9 -30 -4 -127 -25 -194
-41 -10 -2 -21 -7 -25 -11 -3 -3 -6 -1087 -6 -2409 l0 -2403 26 3 c15 2 53 11
85 19 31 8 61 13 66 10 4 -3 8 0 8 7 0 7 2 10 6 7 4 -5 33 0 97 17 9 3 27 7
40 10 12 2 36 8 52 12 17 4 35 8 40 9 6 1 12 3 15 4 3 1 12 3 20 5 8 2 26 6
40 9 39 8 58 12 158 36 51 12 103 23 115 25 12 2 54 12 92 22 l70 18 2 494 c2
272 4 496 6 498 2 2 202 5 443 7 241 2 453 6 469 10 29 6 68 13 130 23 17 3
35 6 40 8 38 8 72 18 85 22 8 3 21 7 28 9 27 5 147 56 191 81 176 98 282 205
356 358 43 88 67 164 81 255 9 57 11 2221 2 2275 -28 171 -87 295 -189 395
-84 83 -87 86 -196 147 -41 23 -158 70 -193 78 -77 19 -165 35 -215 40 -89 10
-266 12 -297 4 -15 -4 -30 -3 -34 2 -3 5 -11 6 -17 2 -7 -4 -25 -8 -42 -9 -33
-3 -101 -11 -155 -20 -112 -17 -352 -82 -472 -127 -78 -30 -74 -34 -73 86 l1
78 -98 -4 c-54 -2 -101 -7 -104 -10 -3 -3 -17 -2 -30 3 -13 5 -24 6 -24 2z
m975 -713 c22 -5 47 -11 57 -14 59 -14 123 -70 151 -134 20 -45 20 -62 21
-936 1 -489 -2 -912 -7 -940 -25 -149 -129 -232 -327 -261 -65 -9 -551 -11
-556 -2 -8 13 -5 2171 3 2179 9 9 203 81 203 75 0 -2 21 3 48 11 26 8 67 16
91 19 24 2 45 5 47 7 9 8 233 5 269 -4z"/>
<path d="M9259 9605 c-1 0 -3 -41 -4 -91 l-4 -92 222 1 222 0 0 -979 0 -979
83 -2 82 -1 0 36 c1 21 1 461 1 980 0 878 1 942 17 943 9 0 106 1 214 1 127 0
200 3 204 10 6 9 8 66 5 148 l-1 26 -520 0 c-286 0 -520 0 -521 -1z"/>
<path d="M12814 9598 c-4 -7 -9 -2059 -5 -2125 1 -8 26 -11 80 -10 l78 0 0
572 c0 314 3 589 7 611 14 77 79 160 146 187 50 21 190 22 248 3 26 -9 61 -29
78 -45 32 -30 71 -99 80 -142 2 -13 5 -285 5 -604 l1 -580 79 -3 79 -2 0 78
c1 394 -2 1083 -5 1107 -12 93 -66 206 -129 266 -37 37 -118 89 -146 95 -3 0
-16 4 -30 7 -83 23 -221 6 -288 -34 -20 -13 -54 -40 -76 -61 -21 -22 -41 -37
-43 -34 -3 3 -6 166 -7 363 l-1 358 -73 1 c-40 1 -75 -3 -78 -8z"/>
<path d="M16465 9602 c-3 -3 -5 -486 -5 -1073 l0 -1067 78 1 77 2 2 1070 1
1071 -74 0 c-41 0 -76 -2 -79 -4z"/>
<path d="M19411 9596 c-10 -14 -9 -231 2 -242 4 -4 7 -2 7 4 0 11 31 9 50 -3
6 -3 10 -2 10 3 0 7 54 7 92 0 10 -2 13 27 13 122 l0 125 -83 1 c-49 0 -86 -4
-91 -10z"/>
<path d="M10762 9018 c-67 -7 -166 -51 -206 -91 -47 -47 -102 -134 -116 -182
-1 -2 -8 -25 -16 -51 -11 -38 -13 -130 -11 -478 1 -237 6 -444 10 -460 4 -16
9 -34 10 -40 1 -6 4 -13 7 -16 3 -3 16 -26 29 -52 32 -64 81 -120 139 -157 75
-48 126 -59 259 -57 103 2 125 6 174 28 61 28 140 100 180 163 26 40 54 115
64 170 6 37 9 145 3 150 -2 3 -22 7 -44 10 -21 3 -55 7 -75 10 l-36 5 0 -75
c-1 -116 -39 -196 -125 -261 -37 -29 -210 -38 -279 -15 -70 23 -139 109 -154
192 -8 46 -10 387 -2 395 3 4 166 7 362 7 319 0 355 2 356 16 1 36 -3 398 -5
423 -1 15 -5 30 -9 34 -4 4 -7 16 -7 27 0 30 -58 141 -93 179 -103 111 -222
147 -415 126z m233 -191 c64 -34 117 -111 132 -187 3 -14 6 -82 6 -153 2 -106
0 -127 -13 -128 -8 -1 -135 -2 -282 -3 -262 -1 -268 -1 -269 19 -3 82 1 258 6
277 22 77 71 142 136 177 46 25 238 24 284 -2z"/>
<path d="M11997 9024 c-1 -1 -22 -4 -47 -6 -112 -11 -238 -109 -291 -225 -12
-26 -21 -49 -21 -50 1 -2 -5 -21 -13 -44 -12 -33 -15 -121 -15 -468 0 -265 4
-441 11 -462 5 -19 12 -41 14 -49 6 -28 49 -110 57 -110 4 0 8 -6 8 -13 0 -7
19 -31 43 -53 99 -93 147 -109 317 -108 113 1 131 3 184 27 60 28 176 134 176
162 0 8 5 15 10 15 6 0 10 4 10 9 0 5 5 22 12 38 25 62 34 110 37 191 2 69 1
72 -21 73 -13 0 -30 2 -38 4 -8 2 -34 6 -56 10 l-41 7 -1 -63 c-1 -121 -21
-177 -84 -240 -47 -46 -96 -62 -198 -64 -118 -1 -178 26 -237 110 -42 60 -45
99 -44 520 0 220 2 407 4 415 6 31 49 109 73 133 49 50 106 68 207 66 66 -1
104 -6 133 -20 49 -22 98 -70 114 -113 7 -17 16 -40 21 -51 5 -11 11 -56 12
-100 2 -91 -6 -86 105 -64 l53 11 -2 71 c-6 219 -147 406 -327 433 -41 6 -161
12 -165 8z"/>
<path d="M14448 9025 c-2 -1 -23 -5 -47 -9 -67 -9 -130 -45 -197 -112 l-61
-61 -39 73 c-35 67 -42 74 -69 74 l-30 0 2 -712 c1 -392 2 -736 2 -764 l1 -52
78 1 78 0 1 576 c1 317 3 587 5 601 4 29 41 108 60 130 7 8 31 28 53 45 38 28
45 30 147 32 121 3 162 -9 216 -60 18 -17 42 -52 55 -77 22 -45 22 -49 27
-645 l5 -600 78 -2 77 -2 0 595 c-1 485 -4 601 -15 634 -8 22 -14 44 -15 48
-1 17 -36 92 -42 92 -5 0 -8 6 -8 13 0 12 -48 65 -100 110 -23 20 -102 55
-141 62 -44 7 -117 14 -121 10z"/>
<path d="M15597 9024 c-1 -1 -24 -4 -51 -8 -157 -18 -302 -174 -333 -356 -3
-19 -6 -215 -6 -435 0 -418 3 -457 46 -554 11 -24 28 -54 38 -65 11 -11 19
-23 19 -27 0 -13 62 -69 106 -95 68 -40 122 -51 240 -49 60 1 119 5 132 8 39
10 102 40 102 49 0 4 6 8 13 8 19 0 97 88 126 141 56 104 60 137 59 594 0 417
0 420 -24 493 -35 106 -90 182 -169 233 -76 49 -115 60 -219 62 -43 1 -78 2
-79 1z m215 -210 c46 -32 95 -95 103 -131 3 -13 7 -33 10 -45 6 -30 6 -773 0
-822 -12 -89 -86 -177 -169 -200 -66 -19 -197 -12 -249 13 -62 30 -127 111
-127 158 0 11 -3 23 -7 27 -12 12 -10 786 3 836 12 50 34 94 61 125 55 61 102
76 231 72 95 -3 106 -6 144 -33z"/>
<path d="M17295 9013 c-33 -7 -65 -14 -70 -16 -32 -8 -106 -61 -142 -101 -23
-25 -40 -46 -37 -46 3 0 -4 -13 -15 -28 -37 -52 -63 -150 -64 -247 -1 -49 -6
-93 -12 -97 -7 -5 -7 -8 0 -8 6 0 10 -116 10 -328 0 -228 4 -342 12 -377 15
-58 71 -175 84 -175 5 0 9 -5 9 -11 0 -21 75 -80 140 -112 57 -27 76 -31 165
-34 120 -3 197 10 247 43 21 13 40 24 43 24 13 0 95 93 107 121 7 16 16 29 19
29 6 0 31 73 45 130 4 14 7 210 8 435 2 443 -1 480 -51 583 -51 105 -165 199
-263 217 -67 12 -176 11 -235 -2z m251 -187 c59 -28 100 -76 124 -147 15 -42
17 -103 17 -456 0 -239 -4 -420 -10 -438 -17 -53 -71 -123 -112 -147 -52 -29
-54 -30 -166 -30 -113 -1 -152 14 -206 76 -68 79 -69 82 -68 552 0 359 2 424
15 439 8 10 14 21 14 24 -7 30 84 131 117 131 10 0 20 4 23 9 3 5 50 9 103 10
84 1 105 -2 149 -23z"/>
<path d="M18502 9018 c-58 -9 -133 -43 -180 -83 -70 -59 -135 -175 -149 -269
-9 -52 -9 -248 0 -301 10 -71 44 -147 90 -208 27 -34 28 -41 17 -63 -8 -13
-17 -24 -21 -24 -5 0 -20 -25 -34 -55 -64 -141 -43 -303 54 -405 l38 -40 -26
-43 c-80 -126 -98 -301 -43 -425 8 -20 16 -39 17 -42 0 -3 9 -18 20 -35 33
-52 92 -104 147 -131 29 -14 60 -29 68 -33 8 -4 65 -8 126 -9 88 -1 123 3 164
18 92 34 175 100 202 161 7 16 16 29 19 29 5 0 26 57 36 100 2 8 5 52 8 96 6
132 -30 236 -115 325 -45 47 -153 107 -196 109 -11 0 -87 2 -170 3 -134 3
-154 6 -185 25 -53 32 -76 98 -63 177 6 36 51 91 85 103 13 5 87 10 164 10 77
1 155 3 174 6 97 15 221 112 264 207 57 123 59 144 61 496 1 234 -1 272 -14
276 -29 6 -50 -5 -56 -29 -3 -13 -9 -24 -13 -24 -4 0 -14 -16 -21 -35 -24 -61
-32 -61 -99 5 -34 33 -68 60 -76 60 -8 0 -15 4 -15 9 0 14 -100 40 -165 44
-33 1 -84 -1 -113 -5z m261 -186 c58 -29 97 -69 125 -129 24 -54 26 -68 26
-189 0 -122 -2 -135 -27 -186 -57 -115 -114 -146 -269 -146 -94 0 -113 3 -158
25 -27 13 -60 39 -72 56 -12 18 -25 34 -30 37 -20 14 -35 121 -33 234 1 104 5
128 25 171 29 60 77 111 114 121 14 3 28 10 31 14 3 5 57 9 120 9 87 -1 123
-5 148 -17z m-50 -1316 c117 -19 185 -95 193 -218 6 -85 -17 -159 -64 -206
-53 -52 -108 -69 -218 -67 -126 3 -186 35 -231 125 -22 46 -24 54 -23 125 1
186 128 275 343 241z"/>
<path d="M20337 9024 c-1 -1 -20 -4 -42 -7 -92 -12 -153 -44 -221 -112 -55
-55 -112 -174 -120 -251 -13 -112 -10 -794 3 -867 17 -94 65 -186 127 -246 51
-48 117 -88 153 -94 10 -1 23 -6 28 -9 20 -12 219 -6 265 9 25 8 50 15 55 16
17 4 78 48 111 81 40 41 66 80 92 142 27 65 35 103 36 188 l1 70 -35 8 c-19 4
-54 10 -77 13 l-43 7 0 -69 c0 -70 -21 -163 -43 -190 -75 -90 -114 -107 -242
-107 -92 1 -108 4 -147 27 -57 33 -82 62 -109 122 -19 45 -22 68 -23 248 -1
113 3 201 8 204 5 4 169 6 363 6 l354 0 -2 214 c-1 118 -6 233 -11 256 -14 56
-61 156 -88 187 -12 14 -27 32 -34 41 -19 26 -99 76 -150 93 -38 13 -199 28
-209 20z m189 -196 c49 -23 92 -67 119 -123 17 -34 20 -62 20 -195 l0 -154
-280 -1 -279 0 1 130 c1 157 4 178 31 232 28 54 65 91 116 114 58 27 213 25
272 -3z"/>
<path d="M21557 9024 c-1 -1 -26 -5 -55 -8 -143 -17 -270 -134 -314 -291 -16
-55 -16 -198 -1 -255 41 -149 135 -228 373 -310 199 -69 259 -107 305 -188 20
-35 28 -64 30 -112 1 -36 -1 -69 -6 -75 -4 -5 -8 -14 -9 -20 -4 -29 -37 -79
-64 -100 -60 -45 -104 -58 -212 -58 -90 -1 -106 2 -157 27 -31 15 -57 31 -57
34 0 4 -12 21 -26 37 -40 46 -55 93 -58 180 l-3 80 -29 -2 c-65 -4 -119 -15
-125 -25 -8 -12 -2 -120 8 -158 3 -14 8 -33 10 -44 7 -36 64 -132 102 -171 67
-71 87 -84 196 -125 11 -4 69 -7 129 -7 93 0 128 3 191 20 31 9 103 54 142 90
45 42 119 169 108 187 -4 6 -2 10 2 10 5 0 10 19 12 43 6 78 6 137 1 137 -3 0
-6 16 -6 35 -2 57 -58 158 -117 211 -55 50 -162 105 -288 147 -42 14 -102 38
-134 53 -66 29 -155 113 -155 144 0 11 -4 20 -8 20 -15 0 -6 153 11 190 20 44
72 94 117 113 56 23 206 22 261 -1 66 -29 131 -108 143 -177 3 -15 7 -29 10
-32 2 -2 1 -17 -4 -32 -11 -41 1 -55 41 -47 19 4 52 10 74 12 37 5 59 20 50
34 -2 3 -6 25 -9 49 -23 190 -165 355 -324 377 -47 6 -151 12 -155 8z"/>
<path d="M19440 8990 l-25 -5 0 -762 0 -763 80 3 80 2 0 759 c0 478 -4 760
-10 764 -12 7 -92 9 -125 2z"/>
</g>
</svg>
