<svg width="124" height="14" viewBox="0 0 124 14" fill="none" xmlns="http://www.w3.org/2000/svg">
<path d="M2.5 5.64322C2.5 5.09966 2.63258 4.60416 2.89773 4.15672C3.16288 3.70927 3.51918 3.35298 3.96662 3.08782C4.41406 2.82267 4.90956 2.6901 5.45312 2.6901C5.92377 2.6901 6.35795 2.79119 6.75568 2.99336C7.15672 3.19554 7.48816 3.47229 7.75 3.82362C8.01184 4.17163 8.17424 4.56604 8.23722 5.00686H7.03409C6.9678 4.66548 6.78385 4.38707 6.48224 4.17163C6.18063 3.95288 5.83759 3.84351 5.45312 3.84351C5.12169 3.84351 4.82008 3.92471 4.5483 4.08711C4.27652 4.24952 4.05942 4.46661 3.89702 4.73839C3.73461 5.01017 3.65341 5.31178 3.65341 5.64322C3.65341 5.97466 3.73461 6.27627 3.89702 6.54805C4.05942 6.81983 4.27652 7.03692 4.5483 7.19933C4.82008 7.36173 5.12169 7.44294 5.45312 7.44294C5.83759 7.44294 6.16241 7.33522 6.42756 7.11978C6.69602 6.90103 6.86506 6.62097 6.93466 6.27959H8.13778C8.07481 6.7204 7.92069 7.11647 7.67543 7.4678C7.43016 7.81581 7.11529 8.0909 6.73082 8.29308C6.34967 8.49526 5.92377 8.59635 5.45312 8.59635C4.90956 8.59635 4.41406 8.46377 3.96662 8.19862C3.51918 7.93347 3.16288 7.57717 2.89773 7.12973C2.63258 6.68228 2.5 6.18678 2.5 5.64322ZM5.40341 10.8932C4.68087 10.8932 4.00142 10.7573 3.36506 10.4856C2.73201 10.2138 2.17353 9.83759 1.68963 9.357C1.20904 8.8731 0.831203 8.31462 0.556108 7.68157C0.284328 7.04852 0.150095 6.36907 0.153409 5.64322C0.156723 4.91737 0.294271 4.23792 0.566051 3.60487C0.841146 2.97182 1.21899 2.415 1.69957 1.93442C2.18016 1.45051 2.73698 1.07267 3.37003 0.800892C4.00308 0.529112 4.68087 0.393222 5.40341 0.393222C6.12926 0.393222 6.80871 0.529112 7.44176 0.800892C8.07813 1.07267 8.63494 1.45051 9.11222 1.93442C9.5928 2.415 9.96899 2.97182 10.2408 3.60487C10.5125 4.23792 10.6501 4.91737 10.6534 5.64322C10.6567 6.36907 10.5225 7.04852 10.2507 7.68157C9.97893 8.31462 9.60275 8.8731 9.12216 9.357C8.64157 9.83759 8.0831 10.2138 7.44673 10.4856C6.81037 10.7573 6.12926 10.8932 5.40341 10.8932ZM5.40341 9.73981C5.97017 9.73981 6.50213 9.63375 6.99929 9.42163C7.49645 9.20951 7.93229 8.91619 8.30682 8.54166C8.68134 8.16713 8.97467 7.73295 9.18679 7.2391C9.39891 6.74194 9.50331 6.21164 9.5 5.64819C9.49669 5.08143 9.38897 4.54947 9.17685 4.05231C8.96473 3.55515 8.6714 3.11931 8.29688 2.74478C7.92235 2.37026 7.48816 2.07693 6.99432 1.86481C6.50047 1.65269 5.97017 1.54663 5.40341 1.54663C4.83996 1.54663 4.31132 1.65269 3.81747 1.86481C3.32363 2.07693 2.88944 2.37191 2.51491 2.74976C2.14039 3.12428 1.84541 3.56012 1.62997 4.05728C1.41785 4.55113 1.31013 5.08143 1.30682 5.64819C1.3035 6.20833 1.40791 6.73697 1.62003 7.23413C1.83215 7.72798 2.12547 8.16216 2.5 8.53669C2.87784 8.91121 3.31368 9.2062 3.80753 9.42163C4.30469 9.63375 4.83665 9.73981 5.40341 9.73981ZM16.802 10.7341V9.83924L20.1628 6.16027C20.5572 5.7294 20.882 5.35487 21.1373 5.03669C21.3925 4.71519 21.5814 4.41358 21.704 4.13186C21.83 3.84682 21.8929 3.54852 21.8929 3.23697C21.8929 2.87902 21.8068 2.56912 21.6344 2.30728C21.4654 2.04545 21.2334 1.84327 20.9384 1.70075C20.6434 1.55823 20.312 1.48697 19.9441 1.48697C19.553 1.48697 19.2116 1.56817 18.9199 1.73058C18.6316 1.88967 18.4078 2.11339 18.2488 2.40174C18.093 2.6901 18.0151 3.02816 18.0151 3.41595H16.8418C16.8418 2.81936 16.9793 2.29568 17.2544 1.84493C17.5295 1.39417 17.9041 1.04284 18.378 0.790949C18.8553 0.539055 19.3906 0.413108 19.9838 0.413108C20.5804 0.413108 21.1091 0.539055 21.5698 0.790949C22.0305 1.04284 22.3917 1.38257 22.6536 1.81012C22.9154 2.23768 23.0463 2.7133 23.0463 3.23697C23.0463 3.6115 22.9784 3.97774 22.8425 4.33569C22.7099 4.69033 22.4779 5.0864 22.1465 5.5239C21.8184 5.95809 21.3626 6.48839 20.7793 7.11481L18.4924 9.56084V9.64038H23.2253V10.7341H16.802ZM28.5996 10.8733C27.8506 10.8733 27.2125 10.6695 26.6855 10.2618C26.1586 9.85084 25.7559 9.25591 25.4775 8.47703C25.199 7.69483 25.0598 6.75023 25.0598 5.64322C25.0598 4.54284 25.199 3.60321 25.4775 2.82433C25.7592 2.04213 26.1635 1.44554 26.6905 1.03456C27.2208 0.620257 27.8572 0.413108 28.5996 0.413108C29.342 0.413108 29.9767 0.620257 30.5037 1.03456C31.034 1.44554 31.4384 2.04213 31.7168 2.82433C31.9985 3.60321 32.1394 4.54284 32.1394 5.64322C32.1394 6.75023 32.0002 7.69483 31.7218 8.47703C31.4434 9.25591 31.0407 9.85084 30.5137 10.2618C29.9867 10.6695 29.3487 10.8733 28.5996 10.8733ZM28.5996 9.77959C29.342 9.77959 29.9187 9.42163 30.3297 8.70572C30.7407 7.98981 30.9462 6.96898 30.9462 5.64322C30.9462 4.76159 30.8517 4.01088 30.6628 3.39109C30.4772 2.7713 30.2087 2.299 29.8574 1.97419C29.5094 1.64938 29.0901 1.48697 28.5996 1.48697C27.8638 1.48697 27.2888 1.8499 26.8745 2.57575C26.4602 3.29829 26.253 4.32078 26.253 5.64322C26.253 6.52485 26.3458 7.2739 26.5314 7.89038C26.717 8.50686 26.9838 8.97584 27.3319 9.29734C27.6832 9.61884 28.1058 9.77959 28.5996 9.77959ZM34.0286 10.7341V9.83924L37.3894 6.16027C37.7838 5.7294 38.1086 5.35487 38.3638 5.03669C38.619 4.71519 38.8079 4.41358 38.9306 4.13186C39.0565 3.84682 39.1195 3.54852 39.1195 3.23697C39.1195 2.87902 39.0333 2.56912 38.861 2.30728C38.6919 2.04545 38.4599 1.84327 38.165 1.70075C37.87 1.55823 37.5385 1.48697 37.1706 1.48697C36.7795 1.48697 36.4382 1.56817 36.1465 1.73058C35.8581 1.88967 35.6344 2.11339 35.4753 2.40174C35.3195 2.6901 35.2417 3.02816 35.2417 3.41595H34.0684C34.0684 2.81936 34.2059 2.29568 34.481 1.84493C34.7561 1.39417 35.1306 1.04284 35.6046 0.790949C36.0819 0.539055 36.6171 0.413108 37.2104 0.413108C37.807 0.413108 38.3356 0.539055 38.7963 0.790949C39.257 1.04284 39.6183 1.38257 39.8801 1.81012C40.142 2.23768 40.2729 2.7133 40.2729 3.23697C40.2729 3.6115 40.205 3.97774 40.0691 4.33569C39.9365 4.69033 39.7045 5.0864 39.373 5.5239C39.0449 5.95809 38.5892 6.48839 38.0059 7.11481L35.7189 9.56084V9.64038H40.4519V10.7341H34.0286ZM42.0478 8.64606V7.63186L46.1245 0.552312H47.3375L43.3603 7.47277V7.55231H49.4057V8.64606H42.0478ZM46.8404 10.7341V8.34777V7.86552V4.37049H48.0137V10.7341H46.8404ZM60.9535 3.09777C60.8938 2.59398 60.6519 2.20288 60.2276 1.92447C59.8034 1.64606 59.283 1.50686 58.6665 1.50686C58.2158 1.50686 57.8214 1.57977 57.4833 1.72561C57.1486 1.87144 56.8867 2.07196 56.6978 2.32717C56.5122 2.58238 56.4194 2.87239 56.4194 3.1972C56.4194 3.46898 56.484 3.70264 56.6133 3.89819C56.7459 4.09043 56.9149 4.25118 57.1204 4.38044C57.3259 4.50638 57.5413 4.61079 57.7667 4.69365C57.9921 4.77319 58.1992 4.83782 58.3881 4.88754L59.4222 5.16595C59.6874 5.23555 59.9824 5.33167 60.3072 5.4543C60.6353 5.57693 60.9485 5.74431 61.2468 5.95643C61.5484 6.16524 61.797 6.4337 61.9925 6.76183C62.1881 7.08995 62.2859 7.49265 62.2859 7.96993C62.2859 8.52012 62.1417 9.01727 61.8533 9.4614C61.5683 9.90553 61.1507 10.2585 60.6005 10.5204C60.0536 10.7822 59.3891 10.9131 58.6069 10.9131C57.8777 10.9131 57.2463 10.7954 56.7127 10.5601C56.1824 10.3248 55.7648 9.99668 55.4599 9.57575C55.1583 9.15482 54.9876 8.66595 54.9478 8.10913H56.2205C56.2537 8.4936 56.3829 8.81178 56.6083 9.06368C56.837 9.31226 57.1254 9.49786 57.4734 9.62049C57.8247 9.73981 58.2025 9.79947 58.6069 9.79947C59.0775 9.79947 59.5001 9.72324 59.8746 9.57078C60.2492 9.415 60.5458 9.19957 60.7646 8.92447C60.9833 8.64606 61.0927 8.32125 61.0927 7.95004C61.0927 7.61197 60.9982 7.33688 60.8093 7.12476C60.6204 6.91263 60.3718 6.74029 60.0636 6.60771C59.7553 6.47513 59.4222 6.35913 59.0643 6.2597L57.8114 5.90174C57.016 5.67305 56.3862 5.34658 55.9222 4.92234C55.4582 4.4981 55.2262 3.94294 55.2262 3.25686C55.2262 2.68678 55.3803 2.18962 55.6886 1.76538C56.0001 1.33782 56.4177 1.00638 56.9414 0.771062C57.4684 0.532426 58.0567 0.413108 58.7063 0.413108C59.3626 0.413108 59.9459 0.530769 60.4563 0.766091C60.9667 0.998098 61.3711 1.31628 61.6694 1.72064C61.971 2.12499 62.1301 2.58404 62.1467 3.09777H60.9535ZM67.0375 10.8932C66.4011 10.8932 65.8393 10.7325 65.3521 10.411C64.8649 10.0862 64.4837 9.62878 64.2086 9.03882C63.9335 8.44554 63.796 7.74455 63.796 6.93584C63.796 6.13375 63.9335 5.43773 64.2086 4.84777C64.4837 4.2578 64.8665 3.80208 65.3571 3.48058C65.8476 3.15908 66.4144 2.99834 67.0574 2.99834C67.5545 2.99834 67.9473 3.0812 68.2356 3.24692C68.5273 3.40932 68.7493 3.59493 68.9018 3.80373C69.0576 4.00923 69.1786 4.17826 69.2647 4.31084H69.3642V3.09777H70.5375V10.7341H69.4039V9.56084H69.2647C69.1786 9.70004 69.0559 9.8757 68.8968 10.0878C68.7377 10.2966 68.5107 10.4839 68.2157 10.6496C67.9208 10.812 67.528 10.8932 67.0375 10.8932ZM67.1966 9.83924C67.6672 9.83924 68.0649 9.71661 68.3897 9.47135C68.7145 9.22277 68.9615 8.87973 69.1305 8.44223C69.2995 8.00141 69.3841 7.49265 69.3841 6.91595C69.3841 6.34587 69.3012 5.84706 69.1355 5.4195C68.9698 4.98863 68.7245 4.65388 68.3997 4.41524C68.0749 4.17329 67.6738 4.05231 67.1966 4.05231C66.6994 4.05231 66.2851 4.17992 65.9537 4.43512C65.6255 4.68702 65.3786 5.03006 65.2129 5.46424C65.0505 5.89512 64.9693 6.37902 64.9693 6.91595C64.9693 7.45951 65.0521 7.95335 65.2179 8.39748C65.3869 8.8383 65.6355 9.18962 65.9636 9.45146C66.295 9.70998 66.706 9.83924 67.1966 9.83924ZM72.8493 13.5978V3.09777H73.9828V4.31084H74.122C74.2082 4.17826 74.3275 4.00923 74.4799 3.80373C74.6357 3.59493 74.8578 3.40932 75.1461 3.24692C75.4378 3.0812 75.8322 2.99834 76.3294 2.99834C76.9724 2.99834 77.5391 3.15908 78.0297 3.48058C78.5202 3.80208 78.903 4.2578 79.1781 4.84777C79.4532 5.43773 79.5907 6.13375 79.5907 6.93584C79.5907 7.74455 79.4532 8.44554 79.1781 9.03882C78.903 9.62878 78.5218 10.0862 78.0346 10.411C77.5474 10.7325 76.9856 10.8932 76.3493 10.8932C75.8587 10.8932 75.466 10.812 75.171 10.6496C74.876 10.4839 74.649 10.2966 74.4899 10.0878C74.3308 9.8757 74.2082 9.70004 74.122 9.56084H74.0225V13.5978H72.8493ZM74.0027 6.91595C74.0027 7.49265 74.0872 8.00141 74.2562 8.44223C74.4252 8.87973 74.6722 9.22277 74.997 9.47135C75.3218 9.71661 75.7195 9.83924 76.1902 9.83924C76.6807 9.83924 77.09 9.70998 77.4181 9.45146C77.7496 9.18962 77.9982 8.8383 78.1639 8.39748C78.3329 7.95335 78.4174 7.45951 78.4174 6.91595C78.4174 6.37902 78.3346 5.89512 78.1689 5.46424C78.0065 5.03006 77.7595 4.68702 77.4281 4.43512C77.1 4.17992 76.6873 4.05231 76.1902 4.05231C75.7129 4.05231 75.3118 4.17329 74.987 4.41524C74.6622 4.65388 74.417 4.98863 74.2512 5.4195C74.0855 5.84706 74.0027 6.34587 74.0027 6.91595ZM84.264 10.8932C83.6277 10.8932 83.0659 10.7325 82.5787 10.411C82.0914 10.0862 81.7103 9.62878 81.4352 9.03882C81.1601 8.44554 81.0225 7.74455 81.0225 6.93584C81.0225 6.13375 81.1601 5.43773 81.4352 4.84777C81.7103 4.2578 82.0931 3.80208 82.5836 3.48058C83.0742 3.15908 83.6409 2.99834 84.2839 2.99834C84.7811 2.99834 85.1738 3.0812 85.4622 3.24692C85.7538 3.40932 85.9759 3.59493 86.1284 3.80373C86.2842 4.00923 86.4051 4.17826 86.4913 4.31084H86.5907V3.09777H87.764V10.7341H86.6305V9.56084H86.4913C86.4051 9.70004 86.2825 9.8757 86.1234 10.0878C85.9643 10.2966 85.7373 10.4839 85.4423 10.6496C85.1473 10.812 84.7546 10.8932 84.264 10.8932ZM84.4231 9.83924C84.8938 9.83924 85.2915 9.71661 85.6163 9.47135C85.9411 9.22277 86.188 8.87973 86.3571 8.44223C86.5261 8.00141 86.6106 7.49265 86.6106 6.91595C86.6106 6.34587 86.5278 5.84706 86.362 5.4195C86.1963 4.98863 85.9511 4.65388 85.6262 4.41524C85.3014 4.17329 84.9004 4.05231 84.4231 4.05231C83.926 4.05231 83.5117 4.17992 83.1802 4.43512C82.8521 4.68702 82.6052 5.03006 82.4395 5.46424C82.277 5.89512 82.1958 6.37902 82.1958 6.91595C82.1958 7.45951 82.2787 7.95335 82.4444 8.39748C82.6135 8.8383 82.862 9.18962 83.1902 9.45146C83.5216 9.70998 83.9326 9.83924 84.4231 9.83924ZM93.6156 1.64606V0.552312H101.252V1.64606H98.0502V10.7341H96.8173V1.64606H93.6156ZM105.09 10.8932C104.354 10.8932 103.72 10.7308 103.186 10.406C102.656 10.0779 102.246 9.62049 101.958 9.03385C101.673 8.44388 101.53 7.75781 101.53 6.97561C101.53 6.19341 101.673 5.50402 101.958 4.90743C102.246 4.30752 102.647 3.84019 103.161 3.50544C103.678 3.16737 104.281 2.99834 104.971 2.99834C105.368 2.99834 105.761 3.06462 106.149 3.1972C106.537 3.32977 106.89 3.54521 107.208 3.84351C107.526 4.13849 107.78 4.52959 107.969 5.0168C108.157 5.50402 108.252 6.10392 108.252 6.81652V7.31368H102.366V6.29947H107.059C107.059 5.8686 106.973 5.48413 106.8 5.14606C106.631 4.80799 106.389 4.54119 106.074 4.34564C105.763 4.15009 105.395 4.05231 104.971 4.05231C104.503 4.05231 104.099 4.16832 103.758 4.40032C103.42 4.62902 103.159 4.92731 102.977 5.29521C102.795 5.66311 102.704 6.05752 102.704 6.47845V7.15459C102.704 7.73129 102.803 8.22016 103.002 8.6212C103.204 9.01893 103.484 9.3222 103.842 9.53101C104.2 9.7365 104.616 9.83924 105.09 9.83924C105.398 9.83924 105.677 9.79616 105.925 9.70998C106.177 9.62049 106.394 9.48792 106.577 9.31226C106.759 9.13328 106.9 8.91121 106.999 8.64606L108.133 8.96424C108.013 9.34871 107.813 9.68678 107.531 9.97845C107.249 10.2668 106.901 10.4922 106.487 10.6546C106.073 10.8137 105.607 10.8932 105.09 10.8932ZM113.139 10.8932C112.423 10.8932 111.807 10.7242 111.29 10.3861C110.773 10.0481 110.375 9.58238 110.096 8.9891C109.818 8.39583 109.679 7.71803 109.679 6.95572C109.679 6.18015 109.821 5.49573 110.106 4.90245C110.395 4.30586 110.796 3.84019 111.309 3.50544C111.827 3.16737 112.43 2.99834 113.119 2.99834C113.656 2.99834 114.14 3.09777 114.571 3.29663C115.002 3.49549 115.355 3.7739 115.63 4.13186C115.905 4.48981 116.076 4.90743 116.142 5.3847H114.969C114.879 5.03669 114.68 4.72845 114.372 4.45998C114.067 4.1882 113.656 4.05231 113.139 4.05231C112.682 4.05231 112.281 4.17163 111.936 4.41027C111.595 4.64559 111.328 4.97869 111.135 5.40956C110.947 5.83711 110.852 6.33924 110.852 6.91595C110.852 7.50591 110.945 8.01964 111.131 8.45714C111.319 8.89464 111.585 9.23437 111.926 9.47632C112.271 9.71827 112.675 9.83924 113.139 9.83924C113.444 9.83924 113.721 9.78621 113.969 9.68015C114.218 9.57409 114.428 9.42163 114.601 9.22277C114.773 9.0239 114.896 8.78527 114.969 8.50686H116.142C116.076 8.95762 115.912 9.36363 115.65 9.7249C115.391 10.0829 115.048 10.3679 114.621 10.58C114.196 10.7888 113.702 10.8932 113.139 10.8932ZM119.03 6.14038V10.7341H117.857V0.552312H119.03V4.29095H119.13C119.309 3.89654 119.577 3.58333 119.935 3.35132C120.296 3.116 120.777 2.99834 121.377 2.99834C121.897 2.99834 122.353 3.10274 122.744 3.31155C123.135 3.51704 123.439 3.83356 123.654 4.26112C123.873 4.68536 123.982 5.22561 123.982 5.88186V10.7341H122.809V5.9614C122.809 5.35487 122.651 4.88588 122.336 4.55444C122.025 4.21969 121.592 4.05231 121.039 4.05231C120.654 4.05231 120.31 4.13352 120.005 4.29592C119.703 4.45833 119.465 4.6953 119.289 5.00686C119.117 5.31841 119.03 5.69625 119.03 6.14038Z" fill="#D9DBE1"/>
</svg>
