<svg width="118" height="51" viewBox="0 0 118 51" fill="none" xmlns="http://www.w3.org/2000/svg">
<g clip-path="url(#clip0_2_475)">
<path d="M39.3396 6.0255C39.3396 4.09931 40.1278 2.61079 41.7043 1.55759C43.2796 0.504384 45.5417 -0.0222168 48.4905 -0.0222168C51.4393 -0.0222168 53.7309 0.22236 55.3699 0.709173V5.13964C53.5421 4.54868 51.3815 4.25378 48.8917 4.25378C46.4019 4.25378 45.1558 5.02379 45.1558 6.56497V7.60413C45.1558 8.37414 45.3293 8.97213 45.6762 9.39575C46.0219 9.82054 46.7004 10.25 47.7093 10.6865L53.1468 13.1908C55.7003 14.3212 56.9759 16.0414 56.9759 18.3526V20.6252C56.9759 22.5771 56.1086 24.0856 54.3763 25.1516C52.6417 26.2177 50.1673 26.7502 46.9518 26.7502C43.7363 26.7502 41.3244 26.4681 39.7172 25.9018V21.4338C41.7338 22.1278 44.0207 22.473 46.5742 22.473C49.6953 22.473 51.2552 21.6772 51.2552 20.0846V19.0829C51.2552 18.4147 51.09 17.8951 50.7585 17.5218C50.4281 17.1496 49.8204 16.7705 48.9377 16.3855L43.7375 14.0743C40.8052 12.7648 39.3396 10.8761 39.3396 8.41159V6.02316V6.0255Z" fill="#0D0403"/>
<path d="M61.2137 4.67206C63.0109 4.18525 65.3909 3.94067 68.3539 3.94067C71.3169 3.94067 73.4775 4.47313 74.8333 5.5392C76.1879 6.60527 76.8664 8.2038 76.8664 10.3348V26.5529H71.475V24.9357C70.2466 26.0907 68.5203 26.6688 66.2972 26.6688C64.0741 26.6688 62.4433 26.2194 61.4037 25.3207C60.363 24.4219 59.8438 23.0481 59.8438 21.1991V19.8885C59.8438 18.3227 60.3004 17.0893 61.2149 16.1906C62.1294 15.2918 63.6103 14.6108 65.66 14.1485L71.3806 12.8777V10.2962C71.3488 9.50041 71.0656 8.92349 70.5298 8.56306C69.9929 8.2038 68.7634 8.02359 66.8423 8.02359C64.9213 8.02359 63.0439 8.29274 61.2149 8.83221V4.67206H61.2137ZM65.4216 20.0816V21.1991C65.4216 22.5086 66.2571 23.1639 67.9279 23.1639C69.2212 23.1639 70.3552 22.8819 71.3334 22.3167V16.6926L67.9763 17.4626C66.9355 17.6943 66.25 17.9892 65.9196 18.3485C65.588 18.7089 65.4228 19.2858 65.4228 20.0827L65.4216 20.0816Z" fill="#0D0403"/>
<path d="M96.4724 5.27781C95.3691 4.4411 93.92 4.02333 92.1229 4.02333C90.3257 4.02333 88.4673 4.39897 86.5439 5.14323V3.9812C84.3774 4.05961 82.5802 4.29248 81.1548 4.68334V33.9261L86.8754 32.6131V26.5618H90.9889C93.1636 26.5618 94.8971 26.0797 96.1892 25.1154C97.4813 24.1512 98.1279 22.734 98.1279 20.8558V8.95582C98.1279 7.33974 97.5768 6.11335 96.4735 5.27781H96.4724ZM92.3589 20.204C92.3589 21.5931 91.429 22.2882 89.5694 22.2882H86.8742V9.03423C87.9457 8.54507 89.049 8.29699 90.1841 8.29699C91.6344 8.29699 92.3589 8.85635 92.3589 9.95519V20.204Z" fill="#0D0403"/>
<path d="M102.356 4.67206C104.153 4.18525 106.534 3.94067 109.496 3.94067C112.459 3.94067 114.62 4.47313 115.976 5.5392C117.331 6.60527 118.009 8.2038 118.009 10.3348V26.5529H112.618V24.9357C111.389 26.0907 109.663 26.6688 107.44 26.6688C105.217 26.6688 103.586 26.2194 102.546 25.3207C101.506 24.4219 100.986 23.0481 100.986 21.1991V19.8885C100.986 18.3227 101.443 17.0893 102.357 16.1906C103.272 15.2918 104.753 14.6108 106.803 14.1485L112.523 12.8777V10.2962C112.491 9.50041 112.208 8.92349 111.672 8.56306C111.136 8.2038 109.906 8.02359 107.985 8.02359C106.064 8.02359 104.186 8.29274 102.357 8.83221V4.67206H102.356ZM106.564 20.0816V21.1991C106.564 22.5086 107.4 23.1639 109.071 23.1639C110.364 23.1639 111.498 22.8819 112.476 22.3167V16.6926L109.119 17.4626C108.078 17.6943 107.393 17.9892 107.062 18.3485C106.731 18.7089 106.565 19.2858 106.565 20.0827L106.564 20.0816Z" fill="#0D0403"/>
<path d="M0 34.8533H3.79134C5.04686 34.8533 5.99322 35.1154 6.62924 35.6373C7.26526 36.1604 7.58386 36.8555 7.58386 37.7227V44.7241C7.58386 45.5912 7.26526 46.2864 6.62924 46.8094C5.99322 47.3325 5.04686 47.5935 3.79134 47.5935H0V34.8533ZM6.39088 37.7227C6.39088 36.3839 5.52476 35.7146 3.79134 35.7146H1.19298V46.7334H3.79252C5.52594 46.7334 6.39206 46.064 6.39206 44.7253V37.7238L6.39088 37.7227Z" fill="#0D0403"/>
<path d="M23.8964 37.098H23.1094C22.6326 37.098 22.2267 37.2197 21.8928 37.4619C22.4332 37.9335 22.7034 38.5654 22.7034 39.3553V40.8474C22.7034 41.7016 22.3848 42.371 21.75 42.8555C21.114 43.34 20.1605 43.5822 18.8885 43.5822C17.8548 43.5822 17.338 43.9719 17.338 44.7489C17.338 45.093 17.469 45.3457 17.7321 45.5049C17.9941 45.664 18.4354 45.7436 19.0561 45.7436H20.4626C22.5925 45.7436 23.6581 46.4703 23.6581 47.9237V48.1156C23.6581 49.658 22.2751 50.4304 19.508 50.4304H18.5298C17.0194 50.4304 15.8347 50.2513 14.9768 49.8944V48.9383C15.9468 49.3596 17.1315 49.5691 18.5298 49.5691H19.4832C21.4703 49.5691 22.4639 49.0904 22.4639 48.1344V47.9237C22.4639 47.4779 22.3329 47.1455 22.0698 46.929C21.8078 46.7125 21.2792 46.6037 20.4839 46.6037H19.0525C18.1616 46.6037 17.4701 46.4633 16.9781 46.1824C16.4848 45.9016 16.2382 45.5002 16.2382 44.9771V44.6705C16.2382 44.3522 16.3491 44.0866 16.5722 43.8771C16.794 43.6665 17.0807 43.5237 17.4312 43.4465C15.8571 43.1153 15.07 42.2481 15.07 40.845V39.353C15.07 38.4987 15.3874 37.8294 16.0246 37.3449C16.6607 36.8604 17.5634 36.6182 18.7316 36.6182C19.8998 36.6182 20.8178 36.8031 21.4857 37.1729C21.7712 36.4719 22.4556 36.1208 23.5365 36.1208H23.8941V37.0968L23.8964 37.098ZM21.5116 40.8474V39.3553C21.5116 38.7304 21.3051 38.2624 20.8921 37.9499C20.478 37.6375 19.8101 37.4818 18.8885 37.4818C17.9669 37.4818 17.299 37.6386 16.8849 37.9499C16.4707 38.2624 16.2654 38.7316 16.2654 39.3553V40.8474C16.2654 41.4723 16.4719 41.9404 16.8849 42.2528C17.2979 42.5653 17.9657 42.7209 18.8885 42.7209C19.8113 42.7209 20.478 42.5653 20.8921 42.2528C21.3051 41.9404 21.5116 41.4711 21.5116 40.8474Z" fill="#0D0403"/>
<path d="M32.1246 34.8212V36.8106H35.392V37.6707H32.1246V45.3603C32.1246 45.8705 32.2756 46.2344 32.5777 46.4509C32.8798 46.6674 33.3565 46.7763 34.0091 46.7763C34.6616 46.7763 35.2091 46.7131 35.654 46.5843V47.4643C35.1773 47.579 34.5294 47.6364 33.7105 47.6364C32.8916 47.6364 32.2237 47.4421 31.7069 47.0524C31.19 46.6639 30.9316 46.0987 30.9316 45.3591V37.6696H29.3811V36.8094H30.9552L31.2892 34.8201H32.1234L32.1246 34.8212Z" fill="#0D0403"/>
<path d="M40.4901 36.728C43.0979 36.728 44.4018 37.5951 44.4018 39.3294V47.5935H43.2336V46.8282C42.9315 47.0189 42.6696 47.1664 42.4466 47.2682C41.8896 47.5362 41.1356 47.6696 40.181 47.6696C37.9555 47.6696 36.8416 46.8153 36.8416 45.1056V44.4936C36.8416 43.2309 37.7962 42.3825 39.7031 41.9495L43.2324 41.1456V39.3282C43.2324 38.7548 43.0377 38.33 42.6483 38.0562C42.2589 37.7824 41.5191 37.6443 40.4299 37.6443C39.3408 37.6443 38.3508 37.7718 37.4611 38.0269V37.0709C38.3508 36.8415 39.3609 36.7268 40.4901 36.7268V36.728ZM38.0098 44.5334V45.1267C38.0098 45.713 38.1809 46.1436 38.5231 46.4174C38.8653 46.6924 39.4411 46.8294 40.2518 46.8294C41.4117 46.8294 42.4064 46.5356 43.2324 45.9493V42.0466L40.0842 42.7546C39.3054 42.9454 38.765 43.1759 38.4629 43.4427C38.1608 43.7107 38.0098 44.0746 38.0098 44.5334Z" fill="#0D0403"/>
<path d="M47.8594 33.9463H49.0524V47.5853H47.8594V33.9463Z" fill="#0D0403"/>
<path d="M57.2268 34.8533H63.5941V35.7146H58.4198V40.9373H63.3805V41.7985H58.4198V47.5947H57.2268V34.8544V34.8533Z" fill="#0D0403"/>
<path d="M84.1775 36.728C86.7853 36.728 88.0881 37.5951 88.0881 39.3294V47.5935H86.9187V46.8282C86.6166 47.0189 86.3546 47.1664 86.1316 47.2682C85.5747 47.5362 84.8195 47.6696 83.866 47.6696C81.6393 47.6696 80.5266 46.8153 80.5266 45.1056V44.4936C80.5266 43.2309 81.4801 42.3825 83.3881 41.9495L86.9175 41.1456V39.3282C86.9175 38.7548 86.7228 38.33 86.3334 38.0562C85.944 37.7824 85.2041 37.6443 84.115 37.6443C83.0258 37.6443 82.0358 37.7718 81.1461 38.0269V37.0709C82.0358 36.8415 83.0459 36.7268 84.1752 36.7268L84.1775 36.728ZM81.6972 44.5334V45.1267C81.6972 45.713 81.8683 46.1436 82.2093 46.4174C82.5503 46.6924 83.1273 46.8294 83.938 46.8294C85.0979 46.8294 86.0915 46.5356 86.9187 45.9493V42.0466L83.7704 42.7546C82.9916 42.9454 82.4512 43.1759 82.1491 43.4427C81.847 43.7107 81.696 44.0746 81.696 44.5334H81.6972Z" fill="#0D0403"/>
<path d="M77.8513 39.319V47.5831H76.6559V39.319C76.6559 38.2073 75.9751 37.6526 74.6051 37.6526C73.7496 37.6526 72.8198 37.8457 71.8191 38.2283V47.5843H70.6238V37.0628C70.9943 36.9633 71.3837 36.8943 71.7943 36.8393V37.3109C72.9047 36.9539 73.9054 36.7749 74.7856 36.7749C75.6659 36.7749 76.4011 36.9984 76.9816 37.4443C77.5622 37.8913 77.8525 38.5162 77.8525 39.319H77.8513Z" fill="#0D0403"/>
<path d="M98.5451 39.319V47.5831H97.3498V39.319C97.3498 38.2073 96.6689 37.6526 95.299 37.6526C94.4435 37.6526 93.5136 37.8457 92.513 38.2283V47.5843H91.3176V37.0628C91.6881 36.9633 92.0776 36.8943 92.4882 36.8393V37.3109C93.5986 36.9539 94.5992 36.7749 95.4795 36.7749C96.3598 36.7749 97.0949 36.9984 97.6755 37.4443C98.256 37.8913 98.5463 38.5162 98.5463 39.319H98.5451Z" fill="#0D0403"/>
<path d="M101.757 39.3095C101.757 37.5881 103.037 36.7268 105.597 36.7268C106.518 36.7268 107.322 36.8099 108.005 36.9749V37.8549C107.289 37.6899 106.451 37.6068 105.489 37.6068C104.527 37.6068 103.863 37.7472 103.497 38.0281C103.131 38.3089 102.949 38.7361 102.949 39.3095V45.1255C102.949 45.6989 103.13 46.1237 103.497 46.3975C103.863 46.6725 104.535 46.8095 105.513 46.8095C106.491 46.8095 107.337 46.7135 108.052 46.5227V47.4215C107.257 47.6005 106.438 47.6895 105.595 47.6895C103.036 47.6895 101.756 46.8352 101.756 45.1255V39.3095H101.757Z" fill="#0D0403"/>
<path d="M110.554 44.9292V39.5731C110.554 38.6931 110.861 37.9828 111.472 37.4398C112.085 36.898 113.018 36.6265 114.275 36.6265C115.532 36.6265 116.465 36.898 117.077 37.4398C117.689 37.9816 117.996 38.6931 117.996 39.5731V42.7678H111.747V44.9292C111.747 46.1661 112.805 46.7852 114.919 46.7852C115.778 46.7852 116.66 46.6763 117.566 46.4599V47.3972C116.755 47.5891 115.873 47.6839 114.919 47.6839C112.009 47.6839 110.554 46.7653 110.554 44.9292ZM111.747 41.9065H116.804V39.5731C116.804 38.1829 115.961 37.4878 114.275 37.4878C112.589 37.4878 111.747 38.1829 111.747 39.5731V41.9065Z" fill="#0D0403"/>
<path d="M67.0395 36.8442V47.5892H65.8489V37.0678C66.2241 36.9683 66.6241 36.8946 67.0395 36.8442Z" fill="#0D0403"/>
<path d="M67.0395 34.833H65.8489V35.6943H67.0395V34.833Z" fill="#0D0403"/>
<path d="M27.477 36.8442V47.5892H26.2864V37.0678C26.6616 36.9683 27.0616 36.8946 27.477 36.8442Z" fill="#0D0403"/>
<path d="M27.477 34.833H26.2864V35.6943H27.477V34.833Z" fill="#0D0403"/>
<path d="M12.1171 36.8442V47.5892H10.9265V37.0678C11.3018 36.9683 11.7018 36.8946 12.1171 36.8442Z" fill="#0D0403"/>
<path d="M12.1171 34.833H10.9265V35.6943H12.1171V34.833Z" fill="#0D0403"/>
<path d="M26.9193 -0.0219727V0.430904C26.9193 4.01062 25.7476 7.3165 23.7664 9.99046H16.3666C10.9315 9.99046 6.11594 12.6211 3.14352 16.6619H0V11.9377C0 5.33414 5.40086 -0.0219727 12.0596 -0.0219727H26.9193Z" fill="#01A6FF"/>
<path d="M23.7701 9.99585C20.7977 14.0448 15.9833 16.6673 10.5553 16.6673H3.14844C6.12086 12.6265 10.9353 9.99585 16.3715 9.99585H23.7713H23.7701Z" fill="#01A6FF"/>
<path d="M26.9193 9.99585V14.72C26.9193 21.3236 21.5185 26.6797 14.8597 26.6797H0V26.2269C0 22.6553 1.16348 19.3495 3.1447 16.6673H10.5527C15.9796 16.6673 20.7951 14.0448 23.7676 9.99585H26.9205H26.9193Z" fill="#009D77"/>
</g>
<defs>
<clipPath id="clip0_2_475">
<rect width="118" height="50.4355" fill="white"/>
</clipPath>
</defs>
</svg>
